<svg id="レイヤー_1" data-name="レイヤー 1" xmlns="http://www.w3.org/2000/svg" viewBox="0 0 245.39 88.7"><path d="M11.72,38.81a47.25,47.25,0,0,0-5.27.2,50.2,50.2,0,0,0,.25-5.37V15.23a55.67,55.67,0,0,0-.25-6,47.54,47.54,0,0,0,5.17.2h24a48,48,0,0,0,5.22-.2,55.67,55.67,0,0,0-.25,6V33.64A38.5,38.5,0,0,0,40.82,39a50.38,50.38,0,0,0-5.22-.2H31.37v7.41c0,1.3.4,1.44,3.83,1.44s4.38-.19,4.88-.94.64-3.13.74-6.32a22.23,22.23,0,0,0,6.07,2.39c-.55,6.12-1,7.86-2.49,9.15-1.34,1.25-3.53,1.59-9.4,1.59-8.65,0-10-.69-10-4.77V38.81H21.17a15.31,15.31,0,0,1-4.87,9.6C13.21,51.3,9.68,53,3.86,54.48A22.89,22.89,0,0,0,.43,48.61c4.48-.8,7-1.64,9.25-3a9.93,9.93,0,0,0,4.68-6.77Zm1.2-21H34.3V15.08H12.92Zm0,7.81H34.3V22.79H12.92Zm0,7.86H34.3V30.6H12.92Z" transform="translate(-0.43 -7.37)"/><path d="M66.59,26.18A12.23,12.23,0,0,0,64.9,26H62.81a21.58,21.58,0,0,0,5.57,7.16c-.45.94-.45.94-1.34,2.59a17,17,0,0,0-1.2,2.73,26.76,26.76,0,0,1-3.43-5.12c.15,1.34.25,3.43.25,5v9.65A43.86,43.86,0,0,0,62.91,54H56.29a49.47,49.47,0,0,0,.3-5.92V42.19c0-2.19.1-4.18.25-6.12a27.83,27.83,0,0,1-4.33,8.56,25.44,25.44,0,0,0-2.93-6A31,31,0,0,0,56.14,26H54.2a18.91,18.91,0,0,0-3.53.24V20a19.91,19.91,0,0,0,3.73.25h2.19V15.93c-1.34.3-2,.45-4.23.84a26,26,0,0,0-2.14-5.57c6-.79,11.69-2.34,14.08-3.83l3.33,5.28a6.17,6.17,0,0,0-.74.29c-1.35.5-2.39.85-4.23,1.45v5.87h1.59c1.49-.15,2.29-.25,2.39-.25V21.5a32.87,32.87,0,0,0,4.18.2h7.11V20.16H72.51a38.41,38.41,0,0,0-4,.15V16.18a29.71,29.71,0,0,0,3.93.2h5.47V14.93H72.16a37.72,37.72,0,0,0-4.48.2V10.36a34.71,34.71,0,0,0,4.93.25h5.32a11.7,11.7,0,0,0-.3-3h6.42a11.83,11.83,0,0,0-.25,3H90a46.54,46.54,0,0,0,5-.25v4.77a38.89,38.89,0,0,0-4.52-.2H83.8v1.45h6a30.23,30.23,0,0,0,4.08-.2v4.13a38.87,38.87,0,0,0-4-.15H83.8V21.7h7.81a29.15,29.15,0,0,0,4.63-.25v5a33.5,33.5,0,0,0-4.63-.24H70.82a29.34,29.34,0,0,0-4.23.24Zm5.92,20.34c-1.64,0-2.94,0-4.18.1a37.43,37.43,0,0,0,.2-4.38V31.45a27.27,27.27,0,0,0-.15-4c1.09.1,1.94.1,4.08.1h17a41.52,41.52,0,0,0,4.18-.1,27.63,27.63,0,0,0-.2,4.28V42.19a30.43,30.43,0,0,0,.2,4.43c-1.69,0-2.54-.1-4.13-.1H88.08a34.1,34.1,0,0,0,9.3,2.59,22.18,22.18,0,0,0-3.13,5.27A29.82,29.82,0,0,1,82.56,49l2.58-2.49H76.29L79,49c-3.83,2.83-6.27,4-11.64,5.37a23.74,23.74,0,0,0-2.89-5,25.12,25.12,0,0,0,9.2-2.89ZM74.4,32.94H87.58V31.5H74.4Zm0,4.68H87.58v-1.5H74.4Zm0,4.77H87.58V40.8H74.4Z" transform="translate(-0.43 -7.37)"/><path d="M119.77,14.24H109.62a42.34,42.34,0,0,0-4.93.2V9.81a44.19,44.19,0,0,0,5.67.3h9.41a14.67,14.67,0,0,0-.3-2.59h6.76a11.52,11.52,0,0,0-.3,2.59h10a40,40,0,0,0,5.38-.25,25.43,25.43,0,0,0-.2,4.08v1.74h.49a26.34,26.34,0,0,0,4.23-.25v4.73a32.64,32.64,0,0,0-4.42-.2h-.3V21.7a27.92,27.92,0,0,0,.15,3.58c-1.5-.1-2.84-.15-5-.15H125.93v1.39h11.74a46.43,46.43,0,0,0,5.28-.2V30.5a50.54,50.54,0,0,0-5.28-.2H125.93v1.45h14c2.54,0,4.23-.1,5.82-.25v5a53.91,53.91,0,0,0-5.82-.3H106.09a53.52,53.52,0,0,0-5.87.3v-5c1.49.15,3.48.25,5.87.25h13.68V30.3H108.52a49.72,49.72,0,0,0-5.27.2V26.32a48,48,0,0,0,5.27.2h11.25V25.13H109.62a43.3,43.3,0,0,0-5,.2V21.2a42.75,42.75,0,0,0,5,.2h10.15V20H106a49.9,49.9,0,0,0-5.82.25V15.43c1.54.15,3.33.25,5.82.25h13.78Zm-14,28.1a36.59,36.59,0,0,0-.15-4.87c1.24.1,1.89.1,5.07.1h24.73c3.28,0,3.88,0,5.12-.1a35.62,35.62,0,0,0-.2,4.87v6.22a32,32,0,0,0,.3,5.27H134V52.29H112v1.54h-6.47a49.21,49.21,0,0,0,.25-5.22Zm6.22.75H134V41.55H112Zm0,5.12H134V46.62H112ZM135,15.68V14.24h-9.11v1.44Zm-9.11,5.72H135V20h-9.11Z" transform="translate(-0.43 -7.37)"/><path d="M195.23,33.74a68,68,0,0,0-8.06-.4H158.32a69.6,69.6,0,0,0-8.06.4V26.13a64.88,64.88,0,0,0,8.06.39h28.85a58.49,58.49,0,0,0,8.06-.39Z" transform="translate(-0.43 -7.37)"/><path d="M211.05,45.38c-2.24,0-4.08,0-5.18.15.1-1.05.2-2.79.2-5V29.91c0-1.3,0-1.74-.1-2.94.95.05,2.39.1,4.93.1h23.77c2.39,0,3.44-.05,4.68-.15a23.44,23.44,0,0,0-.1,2.94V40.15a43,43,0,0,0,.2,5.38c-1.14-.1-2.74-.15-5.17-.15H230.1v1.79c0,1.24.45,1.39,4.67,1.39,3.74,0,4.53-.15,5-.8.3-.44.5-1.64.6-4.57A15.2,15.2,0,0,0,245.82,45c-.8,8.16-1.54,8.7-11.94,8.7-8.56,0-10-.59-10-4.13V45.38H220a13.82,13.82,0,0,1-7.61,7.06,32.33,32.33,0,0,1-9.75,1.89,17.09,17.09,0,0,0-2.88-5.57h1c6.22,0,9.85-1,12.34-3.38Zm6.21-22.94h2.44a32.47,32.47,0,0,0,4-.14v3.63a39.09,39.09,0,0,0-4-.15H205.13c-1.59,0-2.14,0-3.63.1.1-1.5.15-2.39.15-5.13V14a45.45,45.45,0,0,0-.2-5.32c1.29.1,2.53.14,5.17.14h12.14a33,33,0,0,0,4.92-.24v4.37a35.36,35.36,0,0,0-3.78-.15h-2.64v1.3h2.39c1.45,0,2.29-.05,3-.1a7.7,7.7,0,0,0-.1,1.64,16.64,16.64,0,0,0,5.27-8.11L234,8.57c-.55,1.19-.7,1.44-1.24,2.53h7.56a36.75,36.75,0,0,0,4.47-.25v5.67a31.11,31.11,0,0,0-4.47-.24H229.6a27.11,27.11,0,0,1-2.39,3c1.35.1,1.84.1,3,.1h8.65a32.72,32.72,0,0,0,4.43-.2v5.27a35.15,35.15,0,0,0-4.33-.19h-8.06a33.19,33.19,0,0,0-4.22.19V19.86c-.65.69-.95.94-1.79,1.74A17.44,17.44,0,0,0,222.54,18v.84a15.8,15.8,0,0,0,.1,2.44,28.45,28.45,0,0,0-3.09-.1h-2.29Zm-5.42-8.35v-1.3h-4.47v1.3ZM217,18.32V17h-9.65v1.35Zm-9.65,2.88v1.24h4.42V21.2Zm4.82,10.94h20.94V30.65H212.19Zm0,4.63h20.94V35.28H212.19Zm0,4.63h20.94V39.9H212.19Z" transform="translate(-0.43 -7.37)"/><rect x="5.57" y="59.63" width="234" height="1"/><path d="M60,77.66h7.82v3.61H64.69v3.42h2.93v3.43H64.69v4h3.44v3.61H60Z" transform="translate(-0.43 -7.37)"/><path d="M79.41,83.12H75.06V81.78a2.63,2.63,0,0,0-.17-1.19.62.62,0,0,0-.56-.26.72.72,0,0,0-.64.35,2,2,0,0,0-.21,1,3,3,0,0,0,.24,1.36,3.54,3.54,0,0,0,1.33,1.11,13.34,13.34,0,0,1,3.94,3,7,7,0,0,1,.81,3.84,6.77,6.77,0,0,1-.45,2.84,3.51,3.51,0,0,1-1.74,1.53,6.94,6.94,0,0,1-3,.62,6.76,6.76,0,0,1-3.21-.71,3.53,3.53,0,0,1-1.75-1.82,9.43,9.43,0,0,1-.41-3.13V89.23h4.36v2.19a3,3,0,0,0,.18,1.31.71.71,0,0,0,.65.29.76.76,0,0,0,.7-.37,2.11,2.11,0,0,0,.23-1.09,3.35,3.35,0,0,0-.44-2.08,13.15,13.15,0,0,0-2.19-1.64,21,21,0,0,1-2.32-1.68,3.92,3.92,0,0,1-.94-1.45,6.39,6.39,0,0,1-.37-2.36,6.46,6.46,0,0,1,.53-3,3.53,3.53,0,0,1,1.71-1.5,6.77,6.77,0,0,1,2.85-.54,7.47,7.47,0,0,1,3.11.59A3.25,3.25,0,0,1,79,79.36a8,8,0,0,1,.41,3Z" transform="translate(-0.43 -7.37)"/><path d="M90.72,77.66v3.61H87.93V95.69H83.25V81.27H80.47V77.66Z" transform="translate(-0.43 -7.37)"/><path d="M96.48,77.66v18H91.79v-18Z" transform="translate(-0.43 -7.37)"/><path d="M112.83,77.66v18h-4.1V83.52l-1.64,12.17h-2.9l-1.72-11.9v11.9h-4.1v-18h6.07c.18,1.08.36,2.36.55,3.83l.67,4.59,1.08-8.42Z" transform="translate(-0.43 -7.37)"/><path d="M122.82,77.66l2.68,18h-4.79l-.25-3.24h-1.68l-.28,3.24h-4.85l2.39-18Zm-2.49,11.59q-.35-3.06-.71-7.57c-.48,3.45-.78,6-.9,7.57Z" transform="translate(-0.43 -7.37)"/><path d="M135.74,77.66v3.61H133V95.69h-4.69V81.27H125.5V77.66Z" transform="translate(-0.43 -7.37)"/><path d="M136.81,77.66h7.82v3.61H141.5v3.42h2.93v3.43H141.5v4h3.44v3.61h-8.13Z" transform="translate(-0.43 -7.37)"/><path d="M155,77.66V92.08h2.85v3.61h-7.54v-18Z" transform="translate(-0.43 -7.37)"/><path d="M163.68,77.66v18H159v-18Z" transform="translate(-0.43 -7.37)"/><path d="M175.5,83.12h-4.36V81.78a2.49,2.49,0,0,0-.17-1.19.6.6,0,0,0-.55-.26.71.71,0,0,0-.64.35,1.94,1.94,0,0,0-.22,1,3,3,0,0,0,.24,1.36,3.54,3.54,0,0,0,1.33,1.11,13.2,13.2,0,0,1,3.94,3,6.89,6.89,0,0,1,.82,3.84,6.77,6.77,0,0,1-.45,2.84,3.54,3.54,0,0,1-1.75,1.53,6.9,6.9,0,0,1-3,.62,6.81,6.81,0,0,1-3.22-.71,3.47,3.47,0,0,1-1.74-1.82,9.17,9.17,0,0,1-.41-3.13V89.23h4.35v2.19a2.77,2.77,0,0,0,.19,1.31.71.71,0,0,0,.65.29.75.75,0,0,0,.69-.37,2,2,0,0,0,.23-1.09,3.37,3.37,0,0,0-.43-2.08,13.39,13.39,0,0,0-2.2-1.64,21.64,21.64,0,0,1-2.31-1.68,3.93,3.93,0,0,1-1-1.45,8.35,8.35,0,0,1,.16-5.39,3.53,3.53,0,0,1,1.71-1.5,6.84,6.84,0,0,1,2.85-.54,7.52,7.52,0,0,1,3.12.59,3.26,3.26,0,0,1,1.7,1.49,7.78,7.78,0,0,1,.42,3Z" transform="translate(-0.43 -7.37)"/><path d="M186.8,77.66v3.61H184V95.69h-4.69V81.27h-2.77V77.66Z" transform="translate(-0.43 -7.37)"/></svg>