<svg id="レイヤー_1" data-name="レイヤー 1" xmlns="http://www.w3.org/2000/svg" viewBox="0 0 234 88.65"><path d="M53.9,51.05c-5.77,1.09-12.78,2.24-17.85,2.88-1.3.2-1.5.2-2.59.4l-.9-5.82h.55c1.39,0,3.38-.15,6.17-.45V44.93a69.75,69.75,0,0,1-11.44,4.92,23.18,23.18,0,0,0-3-5.32,36.23,36.23,0,0,0,7.47-2,29,29,0,0,0,6.46-3.13H31a37.67,37.67,0,0,0-5.42.2V34a52.53,52.53,0,0,0,5.67.19H46.59v-.84c0-.3,0-.55-.05-1.3H44.35a11.8,11.8,0,0,0-.84-3.28,10.18,10.18,0,0,0,2,.25c.54,0,.74-.2.74-.8V26.87H42.41v1.89c0,1.74.05,2.74.15,4h-6c.1-1.44.15-2.09.15-4V26.87H33.26v2.64a11.3,11.3,0,0,0,.15,2.68H27.59a5.92,5.92,0,0,1,.1-1.09c0-.3,0-1.34,0-1.89V25.48c0-.35,0-1.29-.1-2.69.7.05,2.09.1,3.08.1h6V21.2H30.43a32.19,32.19,0,0,0-4.68.25V16.57a25.21,25.21,0,0,0,3.38.2,25.88,25.88,0,0,0-3.93-2.28,18.48,18.48,0,0,0,4-7.07l5.67,1.05c-.4,1-.54,1.39-.84,2.09h2.68a19,19,0,0,0-.2-3h6.12a17.1,17.1,0,0,0-.2,3h4.33a37.45,37.45,0,0,0,4.78-.2v4.77C50,15,48.93,15,46.79,15H42.41v1.79h5a37.57,37.57,0,0,0,5.17-.2V21.4a43.87,43.87,0,0,0-4.87-.2H42.41v1.69h5c1.64,0,2.59-.05,3.93-.1,0,.55,0,1.1,0,2v3.73a3.82,3.82,0,0,1-.55,2.24H53a14.44,14.44,0,0,0-.15,2.59v.84H65.1A53,53,0,0,0,70.87,34v5.62a38.85,38.85,0,0,0-5.47-.2H62.71l5,2.63a36.23,36.23,0,0,1-5,3.54A37.28,37.28,0,0,0,72,48.21a21.88,21.88,0,0,0-3.13,6c-6.87-1.94-10.8-3.93-15-7.46ZM36.69,16.77V15H31.82a20.74,20.74,0,0,1-1.2,1.79Zm8.76,30.4c4.23-.6,5.87-.9,7.56-1.25a19.16,19.16,0,0,1-4.68-6.51h-.49c-.9.79-1.2,1-2.39,2Zm8-21.84A31.55,31.55,0,0,0,53.61,22V14c0-1.3-.1-2.79-.2-3.83h6.31A24.53,24.53,0,0,0,59.53,14v7.81a31,31,0,0,0,.14,3.48Zm1.09,14.08a11.52,11.52,0,0,0,3.23,3.38,22.06,22.06,0,0,0,4.13-3.38ZM69.13,26.47c0,2.74-.5,3.93-1.94,4.88-1.15.69-2.84,1-6.27,1-.75,0-2.24-.05-3.63-.1a19.09,19.09,0,0,0-1.59-5.32c1.94.2,3.78.3,4.87.3,2.09,0,2.44-.2,2.44-1.39V12.1a26.07,26.07,0,0,0-.25-4.18h6.62a27.34,27.34,0,0,0-.25,4.53Z" transform="translate(-6 -7.42)"/><path d="M76.34,53.93a39.44,39.44,0,0,0,.3-5.52V35.33c0-1.74-.1-3.19-.2-4.68a47.25,47.25,0,0,0,4.92.2H93c1.4,0,2.49-.05,3.59-.15a40.5,40.5,0,0,0-.1,4.18v14c0,1.89,0,3.13.15,4.28H90.22v-1.6H82.91v2.39ZM83,13.49c0-1.79-.1-3.13-.2-4.48a52.65,52.65,0,0,0,5.67.2h19.85A53.37,53.37,0,0,0,114,9a37.19,37.19,0,0,0-.2,4.48V23a39.25,39.25,0,0,0,.2,4.68c-1.65-.1-2.44-.15-5.13-.15h-21c-2.64,0-3.53.05-5.07.15.1-1.3.2-2.79.2-4.68Zm7.26,23.13H82.91v9.1h7.31Zm-.9-21.44V21.8h18.06V15.18Zm26.32,15.67a36.11,36.11,0,0,0,4.57-.2,43.15,43.15,0,0,0-.19,4.73V48.46a37.34,37.34,0,0,0,.24,5.47h-6.61V51.54h-7.91v2.39H99.37a34.07,34.07,0,0,0,.2-4.28v-15a34.74,34.74,0,0,0-.15-4c1.1.1,2.14.15,3.63.15Zm-9.9,14.87h8v-9.1h-8Z" transform="translate(-6 -7.42)"/><path d="M157.62,26.62h6.32a33.53,33.53,0,0,0,4.33-.2,40.25,40.25,0,0,0-.2,4V37a30.07,30.07,0,0,0,.2,3.83,41.07,41.07,0,0,0-4.63-.2H159c3,3.63,7.26,6,12.63,7a20.31,20.31,0,0,0-3,6.47c-6.27-2.09-11.2-5.82-13.88-10.39-2.64,5.17-6.32,8.1-13.14,10.34A20.05,20.05,0,0,0,138.22,48c3.73-.74,5.57-1.44,7.66-2.88a11.3,11.3,0,0,0,3.83-4.43h-3.53a39.19,39.19,0,0,0-4.53.2c0-1.29.1-2.09.1-3.23V30.35a33.36,33.36,0,0,0-2.23,5.43,30,30,0,0,1-2.94-5.58c.15,1.4.2,3.29.2,5.87V47.86a53.53,53.53,0,0,0,.3,6.27h-6.67a54.13,54.13,0,0,0,.3-6.27v-8.5c0-1.4.1-3.88.25-5.72a45.67,45.67,0,0,1-4.13,9.85A26.56,26.56,0,0,0,124,36.67a41.91,41.91,0,0,0,6.17-14.42h-1.64a14.94,14.94,0,0,0-3.28.24V16.08a14.24,14.24,0,0,0,3.28.25h2.09V12.79a34.43,34.43,0,0,0-.3-5.22h6.72a34.59,34.59,0,0,0-.3,5.17v3.59h1.29a11.93,11.93,0,0,0,2.49-.2v2.38A35.16,35.16,0,0,0,145.44,15a22.71,22.71,0,0,0,5.82-7.11h6.46a19.44,19.44,0,0,0,6.07,6.32,31.41,31.41,0,0,0,8.11,4.42A24.19,24.19,0,0,0,169,24.53a36.09,36.09,0,0,1-5.27-2.93v2.69a33.91,33.91,0,0,0-3.83-.15h-2.29ZM150,24.14a35.49,35.49,0,0,0-3.78.15V21.85a30.13,30.13,0,0,1-4.68,3,22.44,22.44,0,0,0-1.14-2.48,15.29,15.29,0,0,0-2.24-.15H137a25,25,0,0,0,4.72,7.61c0-1.3-.05-2.24-.15-3.34,1.2.1,1.7.1,4.23.1h5.87V24.14Zm-2.59,7.46v4.08h3.84a31.58,31.58,0,0,0,.34-4.08Zm12.24-12.94a23.82,23.82,0,0,1-5-5.57,32.73,32.73,0,0,1-4.58,5.57ZM157.52,31.6c-.05,1.74-.15,2.58-.3,4.08h5V31.6Z" transform="translate(-6 -7.42)"/><path d="M191.9,44.73a35.55,35.55,0,0,1-12.34,8.6,21.15,21.15,0,0,0-4.68-5.07c5.52-1.69,8.91-3.63,11.64-6.66Zm17.16-17.31a10.5,10.5,0,0,0-1.6,1.49,62.16,62.16,0,0,1-6.91,6.52c1.89,0,4.78-.2,8.71-.4-.75-.85-1.25-1.34-2.59-2.69l4.82-3.18a89.62,89.62,0,0,1,9.16,10.5l-5.13,3.88c-1.19-1.94-1.69-2.64-2.33-3.64-8.06.65-9.21.75-12.49.9v8A29.16,29.16,0,0,0,201,54h-7.31a30.32,30.32,0,0,0,.29-5.22V41.1c-6.76.3-9.1.4-11.09.45a30.85,30.85,0,0,0-5.87.34l-.79-6.51a72.27,72.27,0,0,0,9.15.35c.7,0,2.64,0,5.92-.1a71,71,0,0,0-9.2-5.43l4-4.37c1.54.79,1.94,1,3,1.59a30,30,0,0,0,2.44-3.09h-9.2v5.43h-6.67a21.26,21.26,0,0,0,.25-3.58V22.49a23.35,23.35,0,0,0-.2-3.68c1.89.15,3.28.2,5.47.2H194V16.33H181.55a52.9,52.9,0,0,0-6.32.24V10.51a52.11,52.11,0,0,0,6.42.29H194a16.2,16.2,0,0,0-.3-3.23H201a20.77,20.77,0,0,0-.2,3.23h13a51.74,51.74,0,0,0,6.37-.29v6.06c-1.44-.14-3.58-.24-6.27-.24H200.75V19h13.38a52.46,52.46,0,0,0,5.52-.2,19.87,19.87,0,0,0-.15,3.39v3.93a19.75,19.75,0,0,0,.25,3.63H213V24.33H198.91a59.21,59.21,0,0,1-5,6c1.15.75,1.5.95,2.59,1.69a33.8,33.8,0,0,0,6.07-7.36ZM207.37,40.8a38,38,0,0,0,13.23,6.81,26.82,26.82,0,0,0-4.13,5.58,53,53,0,0,1-13.73-8.56Z" transform="translate(-6 -7.42)"/><rect y="59.58" width="234" height="1"/><path d="M44.49,77.66h4.72a11.15,11.15,0,0,1,2.95.3,3.34,3.34,0,0,1,1.55.87,3.08,3.08,0,0,1,.7,1.37,12.57,12.57,0,0,1,.18,2.5v1.57a6.51,6.51,0,0,1-.36,2.52A2.43,2.43,0,0,1,52.92,88a6.18,6.18,0,0,1-2.48.42H49.18v7.26H44.49Zm4.69,3.08v4.59h.34a1.1,1.1,0,0,0,.9-.31,2.35,2.35,0,0,0,.25-1.32V82.22a1.76,1.76,0,0,0-.29-1.2A1.83,1.83,0,0,0,49.18,80.74Z" transform="translate(-6 -7.42)"/><path d="M55.94,77.66h3.32a25.59,25.59,0,0,1,4.49.25,3.11,3.11,0,0,1,1.92,1.31,6,6,0,0,1,.74,3.36,5.23,5.23,0,0,1-.53,2.83,2.74,2.74,0,0,1-2.06.87,3.6,3.6,0,0,1,1.88.92,2.89,2.89,0,0,1,.59,1.07,16.28,16.28,0,0,1,.12,2.66v4.76H62.05v-6a4.18,4.18,0,0,0-.22-1.79c-.16-.24-.56-.35-1.2-.35v8.13H55.94Zm4.69,3.08v4a2.17,2.17,0,0,0,1.11-.21c.21-.15.31-.62.31-1.41v-1a1.52,1.52,0,0,0-.3-1.12A1.75,1.75,0,0,0,60.63,80.74Z" transform="translate(-6 -7.42)"/><path d="M78.94,88.22a37.84,37.84,0,0,1-.13,3.85,4.23,4.23,0,0,1-.8,2.06,4.35,4.35,0,0,1-1.82,1.44,6.74,6.74,0,0,1-2.68.5,6.92,6.92,0,0,1-2.6-.47,4.37,4.37,0,0,1-1.85-1.42,4.31,4.31,0,0,1-.84-2.06,38.34,38.34,0,0,1-.13-3.9V85.13a37.84,37.84,0,0,1,.13-3.85,4.23,4.23,0,0,1,.8-2.06,4.28,4.28,0,0,1,1.82-1.44,6.73,6.73,0,0,1,2.67-.5,6.94,6.94,0,0,1,2.61.47A4.37,4.37,0,0,1,78,79.17a4.27,4.27,0,0,1,.84,2.06,38.34,38.34,0,0,1,.13,3.9Zm-4.69-5.93a5.72,5.72,0,0,0-.14-1.61.55.55,0,0,0-.57-.35.65.65,0,0,0-.57.29,4,4,0,0,0-.19,1.67v8.42a8,8,0,0,0,.13,1.94.55.55,0,0,0,.59.37.58.58,0,0,0,.62-.43,8.88,8.88,0,0,0,.13-2Z" transform="translate(-6 -7.42)"/><path d="M80.69,77.66H84.2a21.71,21.71,0,0,1,4.59.31,3.53,3.53,0,0,1,1.82,1,3.22,3.22,0,0,1,.78,1.59A22.92,22.92,0,0,1,91.55,84v6.31a14.77,14.77,0,0,1-.23,3.25,2.41,2.41,0,0,1-.8,1.28,3.3,3.3,0,0,1-1.4.65,13,13,0,0,1-2.52.18H80.69Zm4.69,3.08V92.61c.67,0,1.09-.14,1.24-.41A5.81,5.81,0,0,0,86.86,90V83a9.6,9.6,0,0,0-.08-1.57.74.74,0,0,0-.36-.51A2.39,2.39,0,0,0,85.38,80.74Z" transform="translate(-6 -7.42)"/><path d="M104,77.66v12a20.43,20.43,0,0,1-.14,2.88,3.77,3.77,0,0,1-.79,1.7,4,4,0,0,1-1.73,1.33,6.53,6.53,0,0,1-2.53.45,7.21,7.21,0,0,1-2.85-.53,4.26,4.26,0,0,1-1.85-1.4,3.88,3.88,0,0,1-.73-1.81c-.07-.63-.11-2-.11-4V77.66h4.69V91.18a5.13,5.13,0,0,0,.13,1.51.5.5,0,0,0,.52.33.55.55,0,0,0,.57-.36A6.53,6.53,0,0,0,99.27,91V77.66Z" transform="translate(-6 -7.42)"/><path d="M116.72,85.51H112V82.38a5.64,5.64,0,0,0-.15-1.71.64.64,0,0,0-.66-.34.68.68,0,0,0-.73.41,6.06,6.06,0,0,0-.16,1.79V90.9a5.62,5.62,0,0,0,.16,1.72.8.8,0,0,0,1.38,0,6.53,6.53,0,0,0,.16-1.89V88.46h4.69v.71a14.07,14.07,0,0,1-.39,4,4.11,4.11,0,0,1-1.75,2,6,6,0,0,1-3.34.88,6.93,6.93,0,0,1-3.4-.75,3.6,3.6,0,0,1-1.77-2.06,13.6,13.6,0,0,1-.43-4V84a23.52,23.52,0,0,1,.13-2.93,4.1,4.1,0,0,1,.8-1.87,4.36,4.36,0,0,1,1.84-1.42,6.54,6.54,0,0,1,2.7-.52,6.66,6.66,0,0,1,3.42.8,3.81,3.81,0,0,1,1.77,2,12,12,0,0,1,.42,3.72Z" transform="translate(-6 -7.42)"/><path d="M127.85,77.66v3.61h-2.78V95.69h-4.69V81.27H117.6V77.66Z" transform="translate(-6 -7.42)"/><path d="M142.88,83.12h-4.36V81.78a2.49,2.49,0,0,0-.17-1.19.6.6,0,0,0-.55-.26.71.71,0,0,0-.64.35,1.94,1.94,0,0,0-.22,1,3,3,0,0,0,.24,1.36,3.54,3.54,0,0,0,1.33,1.11,13.2,13.2,0,0,1,3.94,3,6.89,6.89,0,0,1,.82,3.84,6.77,6.77,0,0,1-.45,2.84,3.54,3.54,0,0,1-1.75,1.53,6.9,6.9,0,0,1-3,.62,6.81,6.81,0,0,1-3.22-.71,3.47,3.47,0,0,1-1.74-1.82,9.17,9.17,0,0,1-.41-3.13V89.23h4.35v2.19a2.77,2.77,0,0,0,.19,1.31.71.71,0,0,0,.65.29.75.75,0,0,0,.69-.37,2,2,0,0,0,.23-1.09,3.37,3.37,0,0,0-.43-2.08,13.39,13.39,0,0,0-2.2-1.64,20.61,20.61,0,0,1-2.31-1.68,3.93,3.93,0,0,1-1-1.45,8.35,8.35,0,0,1,.16-5.39,3.53,3.53,0,0,1,1.71-1.5,6.84,6.84,0,0,1,2.85-.54,7.44,7.44,0,0,1,3.11.59,3.25,3.25,0,0,1,1.71,1.49,7.78,7.78,0,0,1,.42,3Z" transform="translate(-6 -7.42)"/><path d="M144.74,77.66h7.82v3.61h-3.13v3.42h2.93v3.43h-2.93v4h3.44v3.61h-8.13Z" transform="translate(-6 -7.42)"/><path d="M162.32,77.66l2.68,18h-4.79L160,92.45h-1.68L158,95.69h-4.85l2.4-18Zm-2.48,11.59q-.36-3.06-.72-7.57c-.47,3.45-.77,6-.9,7.57Z" transform="translate(-6 -7.42)"/><path d="M165.8,77.66h3.32a25.8,25.8,0,0,1,4.5.25,3.09,3.09,0,0,1,1.91,1.31,5.89,5.89,0,0,1,.74,3.36,5.25,5.25,0,0,1-.52,2.83,2.78,2.78,0,0,1-2.06.87,3.56,3.56,0,0,1,1.87.92,2.79,2.79,0,0,1,.6,1.07,18.24,18.24,0,0,1,.11,2.66v4.76h-4.35v-6a4.13,4.13,0,0,0-.23-1.79c-.15-.24-.55-.35-1.2-.35v8.13H165.8Zm4.69,3.08v4a2.12,2.12,0,0,0,1.11-.21c.21-.15.32-.62.32-1.41v-1a1.47,1.47,0,0,0-.31-1.12A1.73,1.73,0,0,0,170.49,80.74Z" transform="translate(-6 -7.42)"/><path d="M189,85.51h-4.69V82.38a5.64,5.64,0,0,0-.15-1.71.64.64,0,0,0-.66-.34.7.7,0,0,0-.74.41,6.44,6.44,0,0,0-.16,1.79V90.9a6,6,0,0,0,.16,1.72.8.8,0,0,0,1.39,0,6.93,6.93,0,0,0,.16-1.89V88.46H189v.71a13.61,13.61,0,0,1-.4,4,4,4,0,0,1-1.75,2,5.94,5.94,0,0,1-3.33.88,6.87,6.87,0,0,1-3.4-.75,3.6,3.6,0,0,1-1.77-2.06,13.54,13.54,0,0,1-.44-4V84a23.1,23.1,0,0,1,.14-2.93,4.08,4.08,0,0,1,.79-1.87,4.49,4.49,0,0,1,1.84-1.42,7.51,7.51,0,0,1,6.12.28,3.81,3.81,0,0,1,1.77,2A11.67,11.67,0,0,1,189,83.8Z" transform="translate(-6 -7.42)"/><path d="M201.5,77.66v18h-4.69V88.12h-1.4v7.57h-4.69v-18h4.69v6.45h1.4V77.66Z" transform="translate(-6 -7.42)"/></svg>