<svg id="レイヤー_1" data-name="レイヤー 1" xmlns="http://www.w3.org/2000/svg" viewBox="0 0 245.64 89.1"><path d="M11.72,38.81a47.25,47.25,0,0,0-5.27.2,50.2,50.2,0,0,0,.25-5.37V15.23a55.67,55.67,0,0,0-.25-6,47.54,47.54,0,0,0,5.17.2h24a48,48,0,0,0,5.22-.2,55.67,55.67,0,0,0-.25,6V33.64A38.5,38.5,0,0,0,40.82,39a50.38,50.38,0,0,0-5.22-.2H31.37v7.41c0,1.3.4,1.44,3.83,1.44s4.38-.19,4.88-.94.64-3.13.74-6.32a22.23,22.23,0,0,0,6.07,2.39c-.55,6.12-1,7.86-2.49,9.15-1.34,1.25-3.53,1.59-9.4,1.59-8.65,0-10-.69-10-4.77V38.81H21.17a15.31,15.31,0,0,1-4.87,9.6C13.21,51.3,9.68,53,3.86,54.48A22.89,22.89,0,0,0,.43,48.61c4.48-.8,7-1.64,9.25-3a9.93,9.93,0,0,0,4.68-6.77Zm1.2-21H34.31V15.08H12.92Zm0,7.81H34.31V22.79H12.92Zm0,7.86H34.31V30.6H12.92Z" transform="translate(-0.43 -6.97)"/><path d="M66.59,26.18A12.23,12.23,0,0,0,64.9,26H62.81a21.58,21.58,0,0,0,5.57,7.16c-.45.94-.45.94-1.34,2.59a17,17,0,0,0-1.2,2.73,27.24,27.24,0,0,1-3.43-5.12c.15,1.34.25,3.43.25,5v9.65A43.86,43.86,0,0,0,62.91,54H56.29a49.47,49.47,0,0,0,.3-5.92V42.19c0-2.19.1-4.18.25-6.12a27.61,27.61,0,0,1-4.33,8.56,25.44,25.44,0,0,0-2.93-6A31,31,0,0,0,56.14,26H54.2a18.91,18.91,0,0,0-3.53.24V20a19.91,19.91,0,0,0,3.73.25h2.19V15.93c-1.34.3-2,.45-4.23.84a26,26,0,0,0-2.14-5.57c6-.79,11.69-2.34,14.08-3.83l3.33,5.28a6.17,6.17,0,0,0-.74.29c-1.34.5-2.39.85-4.23,1.45v5.87h1.59c1.49-.15,2.29-.25,2.39-.25V21.5a32.87,32.87,0,0,0,4.18.2h7.11V20.16H72.51a38.41,38.41,0,0,0-4,.15V16.18a29.71,29.71,0,0,0,3.93.2h5.47V14.93H72.16a37.72,37.72,0,0,0-4.48.2V10.36a34.71,34.71,0,0,0,4.93.25h5.32a11.7,11.7,0,0,0-.3-3h6.42a11.83,11.83,0,0,0-.25,3H90a46.54,46.54,0,0,0,5-.25v4.77a38.89,38.89,0,0,0-4.52-.2H83.8v1.45h6a30.23,30.23,0,0,0,4.08-.2v4.13a38.87,38.87,0,0,0-4-.15H83.8V21.7h7.81a29.15,29.15,0,0,0,4.63-.25v5a33.5,33.5,0,0,0-4.63-.24H70.82a29.34,29.34,0,0,0-4.23.24Zm5.92,20.34c-1.64,0-2.93,0-4.18.1a37.43,37.43,0,0,0,.2-4.38V31.45a27.27,27.27,0,0,0-.15-4c1.1.1,1.94.1,4.08.1h17a41.52,41.52,0,0,0,4.18-.1,27.63,27.63,0,0,0-.2,4.28V42.19a30.43,30.43,0,0,0,.2,4.43c-1.69,0-2.54-.1-4.13-.1H88.08a34.1,34.1,0,0,0,9.3,2.59,22.18,22.18,0,0,0-3.13,5.27A29.82,29.82,0,0,1,82.56,49l2.58-2.49H76.29L79,49c-3.83,2.83-6.27,4-11.64,5.37a23.31,23.31,0,0,0-2.89-5,25.12,25.12,0,0,0,9.2-2.89ZM74.4,32.94H87.58V31.5H74.4Zm0,4.68H87.58v-1.5H74.4Zm0,4.77H87.58V40.8H74.4Z" transform="translate(-0.43 -6.97)"/><path d="M119.77,14.24H109.62a42,42,0,0,0-4.92.2V9.81a44,44,0,0,0,5.67.3h9.4a14.67,14.67,0,0,0-.3-2.59h6.76a12.22,12.22,0,0,0-.29,2.59h10a40,40,0,0,0,5.38-.25,25.43,25.43,0,0,0-.2,4.08v1.74h.49a26.27,26.27,0,0,0,4.23-.25v4.73a32.64,32.64,0,0,0-4.42-.2h-.3V21.7a27.92,27.92,0,0,0,.15,3.58c-1.5-.1-2.84-.15-5-.15H125.94v1.39h11.73a46.43,46.43,0,0,0,5.28-.2V30.5a50.54,50.54,0,0,0-5.28-.2H125.94v1.45h14c2.54,0,4.23-.1,5.82-.25v5a53.91,53.91,0,0,0-5.82-.3H106.09a53.52,53.52,0,0,0-5.87.3v-5c1.49.15,3.48.25,5.87.25h13.68V30.3H108.53a49.93,49.93,0,0,0-5.28.2V26.32a48.15,48.15,0,0,0,5.28.2h11.24V25.13H109.62a43,43,0,0,0-5,.2V21.2a42.45,42.45,0,0,0,5,.2h10.15V20H106a49.9,49.9,0,0,0-5.82.25V15.43c1.54.15,3.33.25,5.82.25h13.78Zm-14,28.1a36.59,36.59,0,0,0-.15-4.87c1.24.1,1.89.1,5.07.1h24.73c3.28,0,3.88,0,5.12-.1a35.62,35.62,0,0,0-.2,4.87v6.22a32,32,0,0,0,.3,5.27H134V52.29H112v1.54h-6.47a49.21,49.21,0,0,0,.25-5.22Zm6.22.75H134V41.55H112Zm0,5.12H134V46.62H112ZM135,15.68V14.24h-9.1v1.44Zm-9.1,5.72H135V20h-9.1Z" transform="translate(-0.43 -6.97)"/><path d="M166.43,9.11c-.5,1.2-.6,1.4-1.1,2.84a77.15,77.15,0,0,1-3.38,8v27.7a58.56,58.56,0,0,0,.3,6.27h-6.92a54.41,54.41,0,0,0,.3-6.22V34.58c0-.45.05-2.24.1-5.42A35.44,35.44,0,0,1,151.6,34a25.65,25.65,0,0,0-2.83-7.32,37,37,0,0,0,9-13.23,26.9,26.9,0,0,0,2-6.47Zm8.15,11.3a56.82,56.82,0,0,1-8.25,12.08,25.7,25.7,0,0,0-4.08-5.82,35.39,35.39,0,0,0,8.11-12.18,30.73,30.73,0,0,0,2.34-7.32l6.76,1.74c-.5,1.25-.7,1.7-1,2.69-.65,1.79-.8,2.24-1.1,3h12.49a41.05,41.05,0,0,0,5.77-.29v6.36a48,48,0,0,0-5.77-.29H181v5.52h7.61a50,50,0,0,0,5.18-.25v6.22c-1.79-.15-3.34-.25-5.23-.25H181v5.52h7.61a40.32,40.32,0,0,0,5.23-.25v6.27c-1.79-.15-3.29-.25-5.23-.25H181v4.82a45.11,45.11,0,0,0,.3,6.37h-7a39.53,39.53,0,0,0,.29-6.32Z" transform="translate(-0.43 -6.97)"/><path d="M242.83,25.33c-.29.75-.54,1.29-1,2.54s-1.94,4.42-2.94,6.36a46.73,46.73,0,0,1-3.68,6.17A16,16,0,0,0,238.56,45c.34.3.54.5.54.5a.66.66,0,0,0,.35.19c.5,0,.9-1.79,1.54-6.61a21.09,21.09,0,0,0,5.08,3.88c-.7,3.78-1.15,5.32-2.09,7.21S241.84,53,240.25,53c-2.79,0-6.17-2.74-9.35-7.46a48,48,0,0,1-10.55,7.8A24.07,24.07,0,0,0,216,48.16a35.22,35.22,0,0,0,12.09-8.11c-2.19-5.47-3.13-10.64-3.73-19.84H209.85c0,2.83,0,3.83,0,6h8.91a29.44,29.44,0,0,0,3.43-.15c-.15,1.09-.15,1.09-.55,9.6-.3,5.82-.89,8.35-2.28,9.75-.9.84-1.75,1.14-3.69,1.34a23.49,23.49,0,0,1-3.28.2c-.35,0-1.14,0-2.34-.05A22.52,22.52,0,0,0,208.56,41c-.94,5.62-2.29,9.25-4.77,13a25,25,0,0,0-5.08-5.17A20.67,20.67,0,0,0,202,41.35c1-4.23,1.59-11.2,1.59-19.8a57.34,57.34,0,0,0-.3-7.46c1.84.15,3.93.25,6.56.25h14.28c-.15-5.38-.15-5.38-.35-6.47h7a31.74,31.74,0,0,0-.3,4.08c0,.1,0,1.39,0,2.39H236a19.79,19.79,0,0,0-4-3.83l4.63-2.89a34,34,0,0,1,4.87,4.83l-2.83,1.89h1.29a34,34,0,0,0,5.22-.25V20.5a59.43,59.43,0,0,0-6.27-.29h-8.2a70.65,70.65,0,0,0,1.89,13.58,33.68,33.68,0,0,0,4-10.8ZM209.56,31.9a85.21,85.21,0,0,1-.95,8.75,30.27,30.27,0,0,0,4.18.4c1.39,0,1.84-.25,2.14-1.29.45-1.45.5-2,.64-7.86Z" transform="translate(-0.43 -6.97)"/><rect x="5.57" y="60.03" width="234" height="1"/><path d="M34.52,85.51H29.83V82.38a5.64,5.64,0,0,0-.15-1.71.64.64,0,0,0-.66-.34.71.71,0,0,0-.74.41,6.57,6.57,0,0,0-.15,1.79V90.9a6.1,6.1,0,0,0,.15,1.72A.69.69,0,0,0,29,93a.67.67,0,0,0,.68-.4,6.53,6.53,0,0,0,.16-1.89V88.46h4.69v.71a14.07,14.07,0,0,1-.39,4,4.11,4.11,0,0,1-1.75,2,6,6,0,0,1-3.34.88,6.93,6.93,0,0,1-3.4-.75,3.6,3.6,0,0,1-1.77-2.06,13.6,13.6,0,0,1-.43-4V84a23.52,23.52,0,0,1,.13-2.93,4.1,4.1,0,0,1,.8-1.87,4.36,4.36,0,0,1,1.84-1.42,6.54,6.54,0,0,1,2.7-.52,6.66,6.66,0,0,1,3.42.8,3.81,3.81,0,0,1,1.77,2,12,12,0,0,1,.42,3.72Z" transform="translate(-0.43 -6.97)"/><path d="M36.2,77.66h3.32a25.64,25.64,0,0,1,4.5.25,3.09,3.09,0,0,1,1.91,1.31,5.89,5.89,0,0,1,.74,3.36,5.25,5.25,0,0,1-.52,2.83,2.76,2.76,0,0,1-2.06.87A3.56,3.56,0,0,1,46,87.2a2.79,2.79,0,0,1,.6,1.07,16.81,16.81,0,0,1,.11,2.66v4.76H42.32v-6a4.13,4.13,0,0,0-.23-1.79c-.15-.24-.55-.35-1.2-.35v8.13H36.2Zm4.69,3.08v4A2.12,2.12,0,0,0,42,84.54c.21-.15.32-.62.32-1.41v-1A1.47,1.47,0,0,0,42,81,1.71,1.71,0,0,0,40.89,80.74Z" transform="translate(-0.43 -6.97)"/><path d="M48.49,77.66h7.82v3.61H53.18v3.42h2.93v3.43H53.18v4h3.44v3.61H48.49Z" transform="translate(-0.43 -6.97)"/><path d="M66.08,77.66l2.68,18H64l-.26-3.24H62l-.29,3.24H56.91l2.39-18ZM63.59,89.25c-.24-2-.47-4.56-.71-7.57-.48,3.45-.78,6-.9,7.57Z" transform="translate(-0.43 -6.97)"/><path d="M79,77.66v3.61H76.22V95.69H71.53V81.27H68.75V77.66Z" transform="translate(-0.43 -6.97)"/><path d="M80.07,77.66h7.82v3.61H84.76v3.42h2.93v3.43H84.76v4H88.2v3.61H80.07Z" transform="translate(-0.43 -6.97)"/><path d="M104,77.66v18H99.93l-2.44-8.2v8.2H93.57v-18h3.92l2.63,8.12V77.66Z" transform="translate(-0.43 -6.97)"/><path d="M105.92,77.66h7.82v3.61h-3.13v3.42h2.93v3.43h-2.93v4h3.44v3.61h-8.13Z" transform="translate(-0.43 -6.97)"/><path d="M133.06,77.66l-2.09,18h-5.85q-.81-4.16-1.42-9.46-.28,2.28-1.31,9.46h-5.82l-2.1-18H119l.5,6.29L120,90q.25-4.73,1.29-12.37h4.87c.07.52.24,2.51.52,6l.51,6.86q.41-6.56,1.31-12.81Z" transform="translate(-0.43 -6.97)"/><path d="M138,77.66h7.82v3.61h-3.13v3.42h2.93v3.43h-2.93v4h3.44v3.61H138Z" transform="translate(-0.43 -6.97)"/><path d="M157.42,83.12h-4.36V81.78a2.67,2.67,0,0,0-.16-1.19.62.62,0,0,0-.56-.26.71.71,0,0,0-.64.35,1.94,1.94,0,0,0-.22,1,2.84,2.84,0,0,0,.25,1.36,3.4,3.4,0,0,0,1.32,1.11,13.42,13.42,0,0,1,3.95,3,7,7,0,0,1,.81,3.84,6.77,6.77,0,0,1-.45,2.84,3.49,3.49,0,0,1-1.75,1.53,6.9,6.9,0,0,1-3,.62,6.81,6.81,0,0,1-3.22-.71,3.51,3.51,0,0,1-1.74-1.82,9.43,9.43,0,0,1-.41-3.13V89.23h4.35v2.19a2.77,2.77,0,0,0,.19,1.31.71.71,0,0,0,.65.29.75.75,0,0,0,.69-.37,2,2,0,0,0,.23-1.09,3.37,3.37,0,0,0-.43-2.08,13.39,13.39,0,0,0-2.2-1.64,21.64,21.64,0,0,1-2.31-1.68,3.8,3.8,0,0,1-.94-1.45,6.37,6.37,0,0,1-.38-2.36,6.59,6.59,0,0,1,.53-3,3.53,3.53,0,0,1,1.71-1.5,6.84,6.84,0,0,1,2.85-.54,7.52,7.52,0,0,1,3.12.59,3.26,3.26,0,0,1,1.7,1.49,7.78,7.78,0,0,1,.42,3Z" transform="translate(-0.43 -6.97)"/><path d="M168.72,77.66v3.61h-2.78V95.69h-4.69V81.27h-2.77V77.66Z" transform="translate(-0.43 -6.97)"/><path d="M174.48,77.66v18h-4.69v-18Z" transform="translate(-0.43 -6.97)"/><path d="M190.84,77.66v18h-4.1V83.52L185.1,95.69h-2.91l-1.72-11.9v11.9h-4.1v-18h6.06c.18,1.08.37,2.36.56,3.83l.67,4.59,1.07-8.42Z" transform="translate(-0.43 -6.97)"/><path d="M200.82,77.66l2.69,18h-4.8l-.25-3.24h-1.68l-.28,3.24h-4.85l2.4-18Zm-2.48,11.59q-.36-3.06-.72-7.57c-.47,3.45-.77,6-.9,7.57Z" transform="translate(-0.43 -6.97)"/><path d="M213.75,77.66v3.61H211V95.69h-4.69V81.27H203.5V77.66Z" transform="translate(-0.43 -6.97)"/><path d="M214.82,77.66h7.82v3.61h-3.13v3.42h2.93v3.43h-2.93v4H223v3.61h-8.13Z" transform="translate(-0.43 -6.97)"/></svg>