<svg id="レイヤー_1" data-name="レイヤー 1" xmlns="http://www.w3.org/2000/svg" viewBox="0 0 246.33 89.1"><path d="M14.36,33.79c.05-.6.05-.85.05-4.58-1.14.05-1.84.1-3,.2V27.47a55.66,55.66,0,0,1-8.31,4.38A23.8,23.8,0,0,0-.26,26.32a37.35,37.35,0,0,0,8.6-4.07,36.54,36.54,0,0,0-6.76-6.42l5-3.53C7.89,13.39,8.29,13.74,9,14.39V8.67a33.18,33.18,0,0,0,4.38.24h8.5a29.15,29.15,0,0,0,4.18-.19,12,12,0,0,0,2.69,4.82,24.41,24.41,0,0,0,4-4.82l5.37,2.88a15.65,15.65,0,0,0-1.1,1.24,40.2,40.2,0,0,1-4.27,4.53,30,30,0,0,0,2.38,1.84,25.79,25.79,0,0,0,4.88-5.67l5.37,2.94a26.62,26.62,0,0,0-2.09,2.43,44.34,44.34,0,0,1-3.43,3.39,36.91,36.91,0,0,0,7.26,3.23,24.79,24.79,0,0,0-3,6,50,50,0,0,1-7.81-4.08v1.94a39.82,39.82,0,0,0-4.38-.2v4.58h7.26a31,31,0,0,0,5.37-.3v6.22a40.66,40.66,0,0,0-5.37-.25H32V46c0,.9.1,1.15.65,1.35a10.18,10.18,0,0,0,2.68.24c2.29,0,3.29-.24,3.93-.94a3.46,3.46,0,0,0,.5-2,12.51,12.51,0,0,0,.1-1.59c0-.25.05-.65.05-1.2a20.45,20.45,0,0,0,6.37,1.94c-.55,4.83-.9,6.12-1.89,7.37-1.35,1.69-3.83,2.23-9.8,2.23-3.64,0-5.67-.24-6.92-.84A3.27,3.27,0,0,1,25.9,50.9a5.73,5.73,0,0,1-.25-2.29V39.46H20A18.51,18.51,0,0,1,15.7,48c-2.48,2.69-5.17,4.28-10.44,6.27a18,18,0,0,0-4.13-5.82C5.66,47.27,8.19,46,10.43,44a10.8,10.8,0,0,0,3-4.52H7.64a40.75,40.75,0,0,0-5.37.25V33.49a31.45,31.45,0,0,0,5.37.3ZM12,14.44a23.88,23.88,0,0,0-2.68.14,39.86,39.86,0,0,1,4,4.08,23.4,23.4,0,0,0,4.32-4.22Zm19,9.25a37.08,37.08,0,0,1-7.21-7.46,41.07,41.07,0,0,1-7.11,7.46ZM20.68,29.21c0,3.68,0,3.68-.05,4.58h5V29.21Z" transform="translate(0.26 -6.97)"/><path d="M53.66,20.11a53.79,53.79,0,0,1,9.1,6.36L59.28,32a44.1,44.1,0,0,0-9.45-6.87Zm9.45,17.41C60.37,45.33,58.63,49.21,55.7,54l-5.62-4.82c2.53-2.94,5-7.81,7.71-15.37ZM55.7,7.82a52.78,52.78,0,0,1,9,6.47l-3.93,5.32a41.19,41.19,0,0,0-9.1-7.06Zm24.22,9.6A47.65,47.65,0,0,0,70.62,12l4.43-4.68a57.53,57.53,0,0,1,10.84,6.22l-3.43,3.88h7.06a41,41,0,0,0,5.77-.3v6.62c-1.59-.15-3.43-.25-5.77-.25H82.31v7.76h5.82c2.19,0,4.08-.1,5.62-.25v6.42c-1.59-.15-3.58-.25-5.62-.25H82.31v9.15h7.76a54.08,54.08,0,0,0,6.17-.3v6.62a51.68,51.68,0,0,0-6.17-.3H68.83a50.77,50.77,0,0,0-6.12.3V46a56.3,56.3,0,0,0,6.12.3h6.82V37.17H71c-2,0-4,.1-5.62.25V31c1.49.15,3.43.25,5.62.25h4.68V23.49h-6a48,48,0,0,0-5.77.25V17.12a43.86,43.86,0,0,0,5.82.3Z" transform="translate(0.26 -6.97)"/><path d="M119.77,14.24H109.62a42,42,0,0,0-4.92.2V9.81a44,44,0,0,0,5.67.3h9.4a14.67,14.67,0,0,0-.3-2.59h6.77a11.52,11.52,0,0,0-.3,2.59H136a39.84,39.84,0,0,0,5.37-.25,25.43,25.43,0,0,0-.2,4.08v1.74h.5a26.21,26.21,0,0,0,4.22-.25v4.73a32.55,32.55,0,0,0-4.42-.2h-.3V21.7a27.92,27.92,0,0,0,.15,3.58c-1.49-.1-2.84-.15-5-.15H125.94v1.39h11.74a46.23,46.23,0,0,0,5.27-.2V30.5a50.33,50.33,0,0,0-5.27-.2H125.94v1.45h14c2.53,0,4.22-.1,5.82-.25v5a54,54,0,0,0-5.82-.3H106.09a53.52,53.52,0,0,0-5.87.3v-5c1.49.15,3.48.25,5.87.25h13.68V30.3H108.53a49.93,49.93,0,0,0-5.28.2V26.32a48.15,48.15,0,0,0,5.28.2h11.24V25.13H109.62a43,43,0,0,0-5,.2V21.2a42.45,42.45,0,0,0,5,.2h10.15V20H106a49.9,49.9,0,0,0-5.82.25V15.43c1.54.15,3.33.25,5.82.25h13.78Zm-14,28.1a36.59,36.59,0,0,0-.15-4.87c1.25.1,1.89.1,5.08.1h24.72c3.28,0,3.88,0,5.12-.1a35.62,35.62,0,0,0-.2,4.87v6.22a32,32,0,0,0,.3,5.27h-6.56V52.29H112v1.54h-6.47a49.21,49.21,0,0,0,.25-5.22Zm6.22.75h22.09V41.55H112Zm0,5.12h22.09V46.62H112ZM135,15.68V14.24h-9.1v1.44Zm-9.1,5.72H135V20h-9.1Z" transform="translate(0.26 -6.97)"/><path d="M166.43,9.11c-.5,1.2-.6,1.4-1.1,2.84a77.15,77.15,0,0,1-3.38,8v27.7a58.56,58.56,0,0,0,.3,6.27h-6.91a54.67,54.67,0,0,0,.29-6.22V34.58c0-.45.05-2.24.1-5.42A36.1,36.1,0,0,1,151.61,34a26,26,0,0,0-2.84-7.32,36.84,36.84,0,0,0,9-13.23,26.9,26.9,0,0,0,2-6.47Zm8.16,11.3a57.23,57.23,0,0,1-8.26,12.08,25.38,25.38,0,0,0-4.08-5.82,35.39,35.39,0,0,0,8.11-12.18,30.73,30.73,0,0,0,2.34-7.32l6.76,1.74c-.5,1.25-.69,1.7-1,2.69-.65,1.79-.8,2.24-1.1,3h12.49a40.86,40.86,0,0,0,5.77-.29v6.36a47.93,47.93,0,0,0-5.77-.29H181v5.52h7.62a49.76,49.76,0,0,0,5.17-.25v6.22c-1.79-.15-3.33-.25-5.22-.25H181v5.52h7.62a40.16,40.16,0,0,0,5.22-.25v6.27c-1.79-.15-3.29-.25-5.22-.25H181v4.82a45.11,45.11,0,0,0,.3,6.37h-7a39.22,39.22,0,0,0,.3-6.32Z" transform="translate(0.26 -6.97)"/><path d="M242.84,25.33c-.3.75-.55,1.29-1.05,2.54s-1.94,4.42-2.93,6.36a49,49,0,0,1-3.68,6.17A15.77,15.77,0,0,0,238.56,45c.35.3.55.5.55.5a.61.61,0,0,0,.34.19c.5,0,.9-1.79,1.55-6.61a21,21,0,0,0,5.07,3.88c-.7,3.78-1.14,5.32-2.09,7.21S241.84,53,240.25,53c-2.79,0-6.17-2.74-9.35-7.46a48,48,0,0,1-10.55,7.8A23.79,23.79,0,0,0,216,48.16a35.22,35.22,0,0,0,12.09-8.11c-2.19-5.47-3.13-10.64-3.73-19.84H209.86c0,2.83,0,3.83-.05,6h8.9a29.44,29.44,0,0,0,3.43-.15c-.15,1.09-.15,1.09-.54,9.6-.3,5.82-.9,8.35-2.29,9.75-.9.84-1.74,1.14-3.68,1.34a23.73,23.73,0,0,1-3.29.2c-.34,0-1.14,0-2.34-.05A22.52,22.52,0,0,0,208.56,41c-.94,5.62-2.29,9.25-4.77,13a25,25,0,0,0-5.08-5.17A20.5,20.5,0,0,0,202,41.35c1-4.23,1.59-11.2,1.59-19.8a57.34,57.34,0,0,0-.3-7.46c1.84.15,3.93.25,6.57.25h14.27c-.15-5.38-.15-5.38-.35-6.47h7a31.74,31.74,0,0,0-.3,4.08c0,.1,0,1.39,0,2.39H236a19.79,19.79,0,0,0-4-3.83l4.63-2.89a34,34,0,0,1,4.87,4.83l-2.83,1.89h1.29a34,34,0,0,0,5.22-.25V20.5a59.36,59.36,0,0,0-6.26-.29h-8.21a71.45,71.45,0,0,0,1.89,13.58,33.68,33.68,0,0,0,4-10.8ZM209.56,31.9a85.21,85.21,0,0,1-.95,8.75,30.4,30.4,0,0,0,4.18.4c1.39,0,1.84-.25,2.14-1.29.45-1.45.5-2,.65-7.86Z" transform="translate(0.26 -6.97)"/><rect x="6.26" y="60.03" width="234" height="1"/><path d="M48.11,85.51H43.42V82.38a5.64,5.64,0,0,0-.15-1.71c-.1-.23-.32-.34-.67-.34a.69.69,0,0,0-.73.41,6.06,6.06,0,0,0-.16,1.79V90.9a5.62,5.62,0,0,0,.16,1.72.8.8,0,0,0,1.39,0,6.93,6.93,0,0,0,.16-1.89V88.46h4.69v.71a14,14,0,0,1-.4,4,4.06,4.06,0,0,1-1.75,2,5.94,5.94,0,0,1-3.33.88,6.87,6.87,0,0,1-3.4-.75,3.6,3.6,0,0,1-1.77-2.06,13.54,13.54,0,0,1-.44-4V84a23.1,23.1,0,0,1,.14-2.93A4.08,4.08,0,0,1,38,79.22a4.49,4.49,0,0,1,1.84-1.42,7.51,7.51,0,0,1,6.12.28,3.81,3.81,0,0,1,1.77,2,11.67,11.67,0,0,1,.43,3.72Z" transform="translate(0.26 -6.97)"/><path d="M49.79,77.66h3.32a25.59,25.59,0,0,1,4.49.25,3.08,3.08,0,0,1,1.92,1.31,6,6,0,0,1,.74,3.36,5.35,5.35,0,0,1-.52,2.83,2.78,2.78,0,0,1-2.06.87,3.6,3.6,0,0,1,1.87.92,2.75,2.75,0,0,1,.59,1.07,16.28,16.28,0,0,1,.12,2.66v4.76H55.9v-6a4.18,4.18,0,0,0-.22-1.79c-.16-.24-.56-.35-1.2-.35v8.13H49.79Zm4.69,3.08v4a2.12,2.12,0,0,0,1.11-.21c.21-.15.31-.62.31-1.41v-1A1.52,1.52,0,0,0,55.6,81,1.75,1.75,0,0,0,54.48,80.74Z" transform="translate(0.26 -6.97)"/><path d="M62.08,77.66h7.81v3.61H66.76v3.42h2.93v3.43H66.76v4h3.45v3.61H62.08Z" transform="translate(0.26 -6.97)"/><path d="M79.66,77.66l2.68,18H77.55l-.25-3.24H75.62l-.28,3.24H70.49l2.39-18ZM77.18,89.25q-.36-3.06-.72-7.57c-.48,3.45-.78,6-.9,7.57Z" transform="translate(0.26 -6.97)"/><path d="M92.58,77.66v3.61H89.8V95.69H85.11V81.27H82.34V77.66Z" transform="translate(0.26 -6.97)"/><path d="M93.65,77.66h7.82v3.61H98.34v3.42h2.93v3.43H98.34v4h3.45v3.61H93.65Z" transform="translate(0.26 -6.97)"/><path d="M117.62,77.66v18h-4.11l-2.43-8.2v8.2h-3.93v-18h3.93l2.62,8.12V77.66Z" transform="translate(0.26 -6.97)"/><path d="M119.51,77.66h7.82v3.61H124.2v3.42h2.93v3.43H124.2v4h3.44v3.61h-8.13Z" transform="translate(0.26 -6.97)"/><path d="M146.64,77.66l-2.09,18H138.7q-.81-4.16-1.42-9.46c-.19,1.52-.62,4.67-1.31,9.46h-5.82l-2.1-18h4.56L133.1,84l.48,6.08q.25-4.73,1.3-12.37h4.87c.06.52.23,2.51.51,6l.52,6.86q.39-6.56,1.31-12.81Z" transform="translate(0.26 -6.97)"/><path d="M162.3,88.22c0,1.81,0,3.09-.12,3.85a4.34,4.34,0,0,1-.81,2.06,4.29,4.29,0,0,1-1.82,1.44,6.66,6.66,0,0,1-2.67.5,6.92,6.92,0,0,1-2.6-.47,4.34,4.34,0,0,1-1.86-1.42,4.39,4.39,0,0,1-.83-2.06,38.34,38.34,0,0,1-.13-3.9V85.13c0-1.81,0-3.09.12-3.85a4.43,4.43,0,0,1,.8-2.06,4.25,4.25,0,0,1,1.83-1.44,6.66,6.66,0,0,1,2.67-.5,6.92,6.92,0,0,1,2.6.47,4.36,4.36,0,0,1,2.69,3.48,38.34,38.34,0,0,1,.13,3.9Zm-4.69-5.93a5.86,5.86,0,0,0-.13-1.61.57.57,0,0,0-.58-.35.65.65,0,0,0-.56.29,3.91,3.91,0,0,0-.2,1.67v8.42a8.53,8.53,0,0,0,.13,1.94.56.56,0,0,0,.6.37.57.57,0,0,0,.61-.43,8.88,8.88,0,0,0,.13-2Z" transform="translate(0.26 -6.97)"/><path d="M164.05,77.66h3.32a25.8,25.8,0,0,1,4.5.25,3.09,3.09,0,0,1,1.91,1.31,5.89,5.89,0,0,1,.74,3.36,5.25,5.25,0,0,1-.52,2.83,2.78,2.78,0,0,1-2.06.87,3.56,3.56,0,0,1,1.87.92,2.79,2.79,0,0,1,.6,1.07,18.24,18.24,0,0,1,.11,2.66v4.76h-4.35v-6a4.13,4.13,0,0,0-.23-1.79c-.15-.24-.55-.35-1.2-.35v8.13h-4.69Zm4.69,3.08v4a2.12,2.12,0,0,0,1.11-.21c.21-.15.32-.62.32-1.41v-1a1.47,1.47,0,0,0-.31-1.12A1.73,1.73,0,0,0,168.74,80.74Z" transform="translate(0.26 -6.97)"/><path d="M176.34,77.66h3.51a21.71,21.71,0,0,1,4.59.31,3.53,3.53,0,0,1,1.82,1,3.22,3.22,0,0,1,.78,1.59A22.92,22.92,0,0,1,187.2,84v6.31a14.77,14.77,0,0,1-.23,3.25,2.41,2.41,0,0,1-.8,1.28,3.3,3.3,0,0,1-1.4.65,12.94,12.94,0,0,1-2.52.18h-5.91ZM181,80.74V92.61c.67,0,1.09-.14,1.25-.41a6.13,6.13,0,0,0,.23-2.21V83a9.6,9.6,0,0,0-.08-1.57.76.76,0,0,0-.35-.51A2.47,2.47,0,0,0,181,80.74Z" transform="translate(0.26 -6.97)"/><path d="M189,77.66h7.82v3.61h-3.13v3.42h2.93v3.43h-2.93v4h3.44v3.61H189Z" transform="translate(0.26 -6.97)"/><path d="M198.43,77.66h3.32a25.59,25.59,0,0,1,4.49.25,3.11,3.11,0,0,1,1.92,1.31,6,6,0,0,1,.74,3.36,5.35,5.35,0,0,1-.52,2.83,2.79,2.79,0,0,1-2.07.87,3.6,3.6,0,0,1,1.88.92,2.89,2.89,0,0,1,.59,1.07,16.28,16.28,0,0,1,.12,2.66v4.76h-4.36v-6a4,4,0,0,0-.23-1.79c-.15-.24-.55-.35-1.19-.35v8.13h-4.69Zm4.69,3.08v4a2.17,2.17,0,0,0,1.11-.21c.21-.15.31-.62.31-1.41v-1a1.52,1.52,0,0,0-.3-1.12A1.75,1.75,0,0,0,203.12,80.74Z" transform="translate(0.26 -6.97)"/></svg>