<svg id="レイヤー_1" data-name="レイヤー 1" xmlns="http://www.w3.org/2000/svg" viewBox="0 0 245.59 89.15"><path d="M11.72,38.81a47.37,47.37,0,0,0-5.27.2,50.2,50.2,0,0,0,.25-5.37V15.23a55.67,55.67,0,0,0-.25-6,47.54,47.54,0,0,0,5.17.2h24a48,48,0,0,0,5.22-.2,55.67,55.67,0,0,0-.25,6V33.64A38.5,38.5,0,0,0,40.82,39a50.38,50.38,0,0,0-5.22-.2H31.37v7.41c0,1.3.4,1.44,3.83,1.44s4.38-.19,4.88-.94.64-3.13.74-6.32a22.23,22.23,0,0,0,6.07,2.39c-.55,6.12-1,7.86-2.49,9.15-1.34,1.25-3.53,1.59-9.4,1.59-8.65,0-10-.69-10-4.77V38.81H21.17a15.31,15.31,0,0,1-4.87,9.6C13.21,51.3,9.68,53,3.86,54.48A22.89,22.89,0,0,0,.43,48.61c4.48-.8,7-1.64,9.25-3a9.93,9.93,0,0,0,4.68-6.77Zm1.2-21H34.31V15.08H12.92Zm0,7.81H34.31V22.79H12.92Zm0,7.86H34.31V30.6H12.92Z" transform="translate(-0.43 -6.92)"/><path d="M66.59,26.18A12.23,12.23,0,0,0,64.9,26H62.81a21.58,21.58,0,0,0,5.57,7.16c-.45.94-.45.94-1.34,2.59a17,17,0,0,0-1.2,2.73,27.24,27.24,0,0,1-3.43-5.12c.15,1.34.25,3.43.25,5v9.65A43.86,43.86,0,0,0,62.91,54H56.29a49.47,49.47,0,0,0,.3-5.92V42.19c0-2.19.1-4.18.25-6.12a27.61,27.61,0,0,1-4.33,8.56,25.44,25.44,0,0,0-2.93-6A31,31,0,0,0,56.14,26H54.2a18.91,18.91,0,0,0-3.53.24V20a19.91,19.91,0,0,0,3.73.25h2.19V15.93c-1.34.3-2,.45-4.23.84a26,26,0,0,0-2.14-5.57c6-.79,11.7-2.34,14.08-3.83l3.34,5.28a5.67,5.67,0,0,0-.75.29c-1.34.5-2.39.85-4.23,1.45v5.87h1.59c1.5-.15,2.29-.25,2.39-.25V21.5a32.87,32.87,0,0,0,4.18.2h7.11V20.16H72.51a38.41,38.41,0,0,0-4,.15V16.18a29.71,29.71,0,0,0,3.93.2h5.47V14.93H72.16a37.72,37.72,0,0,0-4.48.2V10.36a34.71,34.71,0,0,0,4.93.25h5.32a11.7,11.7,0,0,0-.3-3h6.42a11.83,11.83,0,0,0-.25,3H90a46.54,46.54,0,0,0,5-.25v4.77a38.89,38.89,0,0,0-4.52-.2H83.8v1.45h6a30.23,30.23,0,0,0,4.08-.2v4.13a38.87,38.87,0,0,0-4-.15H83.8V21.7h7.81a29.15,29.15,0,0,0,4.63-.25v5a33.5,33.5,0,0,0-4.63-.24H70.82a29.34,29.34,0,0,0-4.23.24Zm5.92,20.34c-1.64,0-2.93,0-4.18.1a37.43,37.43,0,0,0,.2-4.38V31.45a27.27,27.27,0,0,0-.15-4c1.1.1,1.94.1,4.08.1h17a41.52,41.52,0,0,0,4.18-.1,27.63,27.63,0,0,0-.2,4.28V42.19a30.43,30.43,0,0,0,.2,4.43c-1.69,0-2.54-.1-4.13-.1H88.08a34.1,34.1,0,0,0,9.3,2.59,22.18,22.18,0,0,0-3.13,5.27A29.89,29.89,0,0,1,82.56,49l2.59-2.49H76.29L79,49c-3.83,2.83-6.27,4-11.64,5.37a23.31,23.31,0,0,0-2.89-5,25.12,25.12,0,0,0,9.2-2.89ZM74.4,32.94H87.58V31.5H74.4Zm0,4.68H87.58v-1.5H74.4Zm0,4.77H87.58V40.8H74.4Z" transform="translate(-0.43 -6.92)"/><path d="M119.77,14.24H109.62a42,42,0,0,0-4.92.2V9.81a44,44,0,0,0,5.67.3h9.4a14.67,14.67,0,0,0-.3-2.59h6.76a12.22,12.22,0,0,0-.29,2.59h10a40,40,0,0,0,5.38-.25,25.43,25.43,0,0,0-.2,4.08v1.74h.49a26.27,26.27,0,0,0,4.23-.25v4.73a32.64,32.64,0,0,0-4.42-.2h-.3V21.7a27.92,27.92,0,0,0,.15,3.58c-1.5-.1-2.84-.15-5-.15H125.94v1.39h11.73a46.43,46.43,0,0,0,5.28-.2V30.5a50.54,50.54,0,0,0-5.28-.2H125.94v1.45h14c2.54,0,4.23-.1,5.82-.25v5a53.91,53.91,0,0,0-5.82-.3H106.09a53.52,53.52,0,0,0-5.87.3v-5c1.49.15,3.48.25,5.87.25h13.68V30.3H108.53a49.93,49.93,0,0,0-5.28.2V26.32a48.15,48.15,0,0,0,5.28.2h11.24V25.13H109.62a43,43,0,0,0-5,.2V21.2a42.45,42.45,0,0,0,5,.2h10.15V20H106a49.9,49.9,0,0,0-5.82.25V15.43c1.54.15,3.33.25,5.82.25h13.78Zm-14,28.1a36.59,36.59,0,0,0-.15-4.87c1.24.1,1.89.1,5.07.1h24.73c3.28,0,3.88,0,5.12-.1a35.62,35.62,0,0,0-.2,4.87v6.22a32,32,0,0,0,.3,5.27H134V52.29H112v1.54h-6.47a49.21,49.21,0,0,0,.25-5.22Zm6.22.75H134V41.55H112Zm0,5.12H134V46.62H112ZM135,15.68V14.24h-9.1v1.44Zm-9.1,5.72H135V20h-9.1Z" transform="translate(-0.43 -6.92)"/><path d="M155.38,36.37c-.29,7.71-.64,11-1.64,15.27l-4.47-2.33A55.68,55.68,0,0,0,151,35.73ZM165,34.93c-.14-.94-.14-1-.29-1.84l-2.94.3V47.86a36.35,36.35,0,0,0,.3,6.22h-5.92a38.55,38.55,0,0,0,.3-6.22V33.79c-.75.05-1.34.1-1.69.1-.85,0-1.4.1-1.59.1a15.75,15.75,0,0,0-3.24.39l-.5-6a13.15,13.15,0,0,0,2.59.15h1l1.84-2.58a56.52,56.52,0,0,0-5.52-7.42l2.73-5.12L153.44,15a30.09,30.09,0,0,0,3.29-7.71l5.57,2.19a13.36,13.36,0,0,0-1,1.79,75.62,75.62,0,0,1-4.47,8c.64.85.84,1.2,1.34,1.94.5-.74.5-.74,2.14-3.58,1.84-3.28,2-3.68,2.39-4.78l5.22,2.69c-.4.55-.6.9-1.64,2.59-1.49,2.43-5.13,7.61-7.21,10.29,2.28-.15,2.53-.15,4.37-.34a29.46,29.46,0,0,0-1.19-3.54l3.58-1.29a60.68,60.68,0,0,1,2.49,7.91c0-2.09.05-3.73.1-4.83.1-3.48.1-4,.1-5.62a33.62,33.62,0,0,0-.2-4.37c1.34.1,2.19.15,4.57.15h16.67c2.53,0,3.43-.05,4.62-.15-.1,1.19-.14,2.23-.14,4.32v3.34c0,2.09,0,3.43.14,4.42l-4-.1H174.39a16.47,16.47,0,0,0-.15,2h16.31a37.52,37.52,0,0,0,4.63-.19c-.1,1.34-.15,2.23-.15,4.87V49c0,3.58-1.29,4.72-5.17,4.72h-.5a12.13,12.13,0,0,0-1.1-5.12,30.28,30.28,0,0,0,.15,4.43h-4.32a35.42,35.42,0,0,0,.15-4.78v-4H182.4v4a37.47,37.47,0,0,0,.14,4.78h-4.22a36.27,36.27,0,0,0,.15-4.78v-4h-1.85V50c0,1.74,0,3,.15,4.08h-4.92c.1-1.24.15-2.34.15-4.13v-8.9a42.78,42.78,0,0,1-3.48,12.73A16.85,16.85,0,0,0,164,49.26a26.46,26.46,0,0,0,1.89-3.73l-2.24.49a72.22,72.22,0,0,0-1-9.65l3.43-.69c.45,2.58.65,4.22.89,6.51a64,64,0,0,0,1.2-8.4Zm1.75-26a39.57,39.57,0,0,0,5.62.3H190a38.33,38.33,0,0,0,5.62-.3v5.87a41.13,41.13,0,0,0-5-.2h-20a23.89,23.89,0,0,0-3.78.2Zm7.71,12.94v1.69h13.58V21H174.49Zm4,13.48h-1.85v3.78h1.85Zm5.77,3.78V35.38H182.4v3.78Zm6,0V35.38h-2v3.78Zm-2,9.15a9.71,9.71,0,0,0,1.2.1c.65,0,.79-.2.79-.94V44.23h-2Z" transform="translate(-0.43 -6.92)"/><path d="M227.31,30.45h11.05a40.84,40.84,0,0,0,5-.2v4.83a40.66,40.66,0,0,0-4.87-.2H225.57v2.19H239.3a38,38,0,0,0,5.72-.25v5.67a45.12,45.12,0,0,0-5.72-.25h-8.7c3.48,2.34,9.55,4.48,15.42,5.37-1.59,2.19-1.59,2.29-3.24,6a48.1,48.1,0,0,1-9.5-3.33A28.85,28.85,0,0,1,225.42,45c.1,1.49.15,2.44.15,3.08v2.44a12.72,12.72,0,0,0,.3,3.48h-7a16.14,16.14,0,0,0,.3-3.43V48.11c0-1,.05-2,.15-3.08a28.07,28.07,0,0,1-8.66,5.67,46.21,46.21,0,0,1-8.56,2.93,23.26,23.26,0,0,0-3.18-5.87A36.71,36.71,0,0,0,207,45.82a27.17,27.17,0,0,0,7-3.58h-8.35a44.64,44.64,0,0,0-5.72.25V36.82a37.56,37.56,0,0,0,5.72.25h13.53V34.88h-9.31c-2,0-3.28,0-4.57.15a34.07,34.07,0,0,0,.2-4.28V25.63c0-1.44.05-2.24.15-4.23a20.25,20.25,0,0,1-4.18,4,26.57,26.57,0,0,0-2.89-6,29.79,29.79,0,0,0,8.81-9.3,14.62,14.62,0,0,0,1.54-3.19l6.76,1a29.83,29.83,0,0,1-2.53,3.93h8.25A20.31,20.31,0,0,0,223.78,7l6.77.75c-1.05,1.94-1.59,2.84-2.39,4.08H238a34,34,0,0,0,5-.25v5.27a28.08,28.08,0,0,0-4-.2H227.31v1.94h9.06a39.62,39.62,0,0,0,4.82-.19v4.32a29.13,29.13,0,0,0-4.82-.2h-9.06v2h9.06a32.06,32.06,0,0,0,4.82-.19v4.32a35.22,35.22,0,0,0-4.82-.2h-9.06ZM221.1,16.62h-9.46v1.94h9.46Zm0,5.87h-9.46v2h9.46Zm-9.46,5.92v2h9.46v-2Z" transform="translate(-0.43 -6.92)"/><rect x="5.57" y="60.08" width="234" height="1"/><path d="M55.38,77.66v12a20.88,20.88,0,0,1-.13,2.88,4,4,0,0,1-.79,1.7,4.07,4.07,0,0,1-1.74,1.33,6.5,6.5,0,0,1-2.53.45,7.21,7.21,0,0,1-2.85-.53,4.32,4.32,0,0,1-1.85-1.4,3.76,3.76,0,0,1-.72-1.81c-.08-.63-.12-2-.12-4V77.66h4.69V91.18a5.52,5.52,0,0,0,.13,1.51A.51.51,0,0,0,50,93a.53.53,0,0,0,.57-.36A6.53,6.53,0,0,0,50.69,91V77.66Z" transform="translate(-0.43 -6.92)"/><path d="M57.2,77.66h4.72a11.15,11.15,0,0,1,3,.3,3.26,3.26,0,0,1,1.54.87,3,3,0,0,1,.71,1.37,12.57,12.57,0,0,1,.18,2.5v1.57a6.51,6.51,0,0,1-.36,2.52A2.43,2.43,0,0,1,65.63,88a6.2,6.2,0,0,1-2.49.42H61.89v7.26H57.2Zm4.69,3.08v4.59h.34a1.1,1.1,0,0,0,.9-.31,2.44,2.44,0,0,0,.25-1.32V82.22a1.76,1.76,0,0,0-.29-1.2A1.85,1.85,0,0,0,61.89,80.74Z" transform="translate(-0.43 -6.92)"/><path d="M68.65,77.66h3.51a21.71,21.71,0,0,1,4.59.31,3.53,3.53,0,0,1,1.82,1,3.22,3.22,0,0,1,.78,1.59A22.92,22.92,0,0,1,79.51,84v6.31a14.77,14.77,0,0,1-.23,3.25,2.41,2.41,0,0,1-.8,1.28,3.36,3.36,0,0,1-1.4.65,13,13,0,0,1-2.52.18H68.65Zm4.69,3.08V92.61c.67,0,1.09-.14,1.24-.41A5.81,5.81,0,0,0,74.82,90V83a9.6,9.6,0,0,0-.08-1.57.74.74,0,0,0-.36-.51A2.39,2.39,0,0,0,73.34,80.74Z" transform="translate(-0.43 -6.92)"/><path d="M89.36,77.66l2.68,18H87.25L87,92.45H85.32L85,95.69H80.19l2.39-18ZM86.88,89.25q-.36-3.06-.72-7.57c-.47,3.45-.78,6-.9,7.57Z" transform="translate(-0.43 -6.92)"/><path d="M102.29,77.66v3.61H99.5V95.69H94.81V81.27H92V77.66Z" transform="translate(-0.43 -6.92)"/><path d="M103.36,77.66h7.82v3.61H108v3.42H111v3.43H108v4h3.45v3.61h-8.13Z" transform="translate(-0.43 -6.92)"/><path d="M116.86,77.66h7.82v3.61h-3.13v3.42h2.93v3.43h-2.93v4H125v3.61h-8.13Z" transform="translate(-0.43 -6.92)"/><path d="M136.27,83.12h-4.35V81.78a2.63,2.63,0,0,0-.17-1.19.62.62,0,0,0-.56-.26.72.72,0,0,0-.64.35,2,2,0,0,0-.22,1,3,3,0,0,0,.25,1.36,3.48,3.48,0,0,0,1.32,1.11,13.28,13.28,0,0,1,3.95,3,7,7,0,0,1,.81,3.84,6.77,6.77,0,0,1-.45,2.84,3.51,3.51,0,0,1-1.74,1.53,6.94,6.94,0,0,1-3,.62,6.76,6.76,0,0,1-3.21-.71,3.53,3.53,0,0,1-1.75-1.82,9.43,9.43,0,0,1-.41-3.13V89.23h4.36v2.19a3,3,0,0,0,.18,1.31.71.71,0,0,0,.65.29.76.76,0,0,0,.7-.37,2.11,2.11,0,0,0,.23-1.09,3.35,3.35,0,0,0-.44-2.08,13.62,13.62,0,0,0-2.19-1.64,21,21,0,0,1-2.32-1.68,3.92,3.92,0,0,1-.94-1.45,6.39,6.39,0,0,1-.37-2.36,6.62,6.62,0,0,1,.52-3,3.62,3.62,0,0,1,1.71-1.5,6.85,6.85,0,0,1,2.86-.54,7.5,7.5,0,0,1,3.11.59,3.19,3.19,0,0,1,1.7,1.49,7.78,7.78,0,0,1,.42,3Z" transform="translate(-0.43 -6.92)"/><path d="M147.58,77.66v3.61h-2.79V95.69H140.1V81.27h-2.77V77.66Z" transform="translate(-0.43 -6.92)"/><path d="M153.34,77.66v18h-4.69v-18Z" transform="translate(-0.43 -6.92)"/><path d="M169.69,77.66v18h-4.1V83.52L164,95.69H161l-1.72-11.9v11.9h-4.1v-18h6.07c.18,1.08.36,2.36.55,3.83l.67,4.59,1.08-8.42Z" transform="translate(-0.43 -6.92)"/><path d="M179.68,77.66l2.68,18h-4.79l-.25-3.24h-1.68l-.28,3.24h-4.85l2.39-18Zm-2.49,11.59q-.34-3.06-.71-7.57c-.48,3.45-.78,6-.9,7.57Z" transform="translate(-0.43 -6.92)"/><path d="M192.6,77.66v3.61h-2.78V95.69h-4.69V81.27h-2.78V77.66Z" transform="translate(-0.43 -6.92)"/><path d="M193.67,77.66h7.82v3.61h-3.13v3.42h2.93v3.43h-2.93v4h3.44v3.61h-8.13Z" transform="translate(-0.43 -6.92)"/></svg>