<svg id="レイヤー_1" data-name="レイヤー 1" xmlns="http://www.w3.org/2000/svg" viewBox="0 0 234 88.75"><path d="M39.23,33.79c.05-.6.05-.85.05-4.58-1.14.05-1.84.1-3,.2V27.47A55.66,55.66,0,0,1,28,31.85a23.46,23.46,0,0,0-3.38-5.53,37.35,37.35,0,0,0,8.6-4.07,35.93,35.93,0,0,0-6.76-6.42l5-3.53c1.3,1.09,1.69,1.44,2.44,2.09V8.67a33.18,33.18,0,0,0,4.38.24h8.5A29.15,29.15,0,0,0,51,8.72a12.08,12.08,0,0,0,2.69,4.82,24.41,24.41,0,0,0,4-4.82l5.37,2.88A14.46,14.46,0,0,0,62,12.84a41.19,41.19,0,0,1-4.28,4.53,28.43,28.43,0,0,0,2.39,1.84A25.72,25.72,0,0,0,65,13.54l5.37,2.94a26.62,26.62,0,0,0-2.09,2.43A42.61,42.61,0,0,1,64.8,22.3a36.91,36.91,0,0,0,7.26,3.23,24.79,24.79,0,0,0-3,6,50.45,50.45,0,0,1-7.81-4.08v1.94a39.7,39.7,0,0,0-4.38-.2v4.58H64.1a31.23,31.23,0,0,0,5.38-.3v6.22a40.91,40.91,0,0,0-5.38-.25H56.84V46c0,.9.1,1.15.65,1.35a10.24,10.24,0,0,0,2.68.24c2.29,0,3.29-.24,3.93-.94a3.46,3.46,0,0,0,.5-2,12.51,12.51,0,0,0,.1-1.59c0-.25,0-.65,0-1.2a20.45,20.45,0,0,0,6.37,1.94c-.55,4.83-.9,6.12-1.89,7.37-1.35,1.69-3.83,2.23-9.8,2.23-3.63,0-5.67-.24-6.92-.84a3.27,3.27,0,0,1-1.74-1.69,5.73,5.73,0,0,1-.25-2.29V39.46H44.85A18.5,18.5,0,0,1,40.58,48c-2.49,2.69-5.18,4.28-10.45,6.27A17.88,17.88,0,0,0,26,48.46C30.53,47.27,33.06,46,35.3,44a10.71,10.71,0,0,0,3-4.52H32.52a40.66,40.66,0,0,0-5.37.25V33.49a31.38,31.38,0,0,0,5.37.3ZM36.84,14.44a24,24,0,0,0-2.68.14,39.86,39.86,0,0,1,4,4.08,23.53,23.53,0,0,0,4.33-4.22Zm19,9.25a36.86,36.86,0,0,1-7.22-7.46,40.74,40.74,0,0,1-7.11,7.46ZM45.55,29.21c0,3.68,0,3.68,0,4.58h5V29.21Z" transform="translate(-6 -7.32)"/><path d="M78.53,20.11a53.79,53.79,0,0,1,9.1,6.36L84.15,32a44.1,44.1,0,0,0-9.45-6.87ZM88,37.52C85.25,45.33,83.51,49.21,80.57,54L75,49.21c2.54-2.94,5-7.81,7.71-15.37ZM80.57,7.82a52.78,52.78,0,0,1,9,6.47l-3.93,5.32a41.19,41.19,0,0,0-9.1-7.06Zm24.23,9.6A48.07,48.07,0,0,0,95.49,12l4.43-4.68a57.63,57.63,0,0,1,10.85,6.22l-3.44,3.88h7.07a41.21,41.21,0,0,0,5.77-.3v6.62c-1.59-.15-3.44-.25-5.77-.25h-7.22v7.76H113c2.19,0,4.08-.1,5.62-.25v6.42c-1.59-.15-3.58-.25-5.62-.25h-5.82v9.15h7.76a54.08,54.08,0,0,0,6.17-.3v6.62a51.68,51.68,0,0,0-6.17-.3H93.7a51,51,0,0,0-6.12.3V46a56.44,56.44,0,0,0,6.12.3h6.82V37.17H95.84c-2,0-4,.1-5.62.25V31c1.49.15,3.43.25,5.62.25h4.68V23.49h-6a48,48,0,0,0-5.77.25V17.12a43.86,43.86,0,0,0,5.82.3Z" transform="translate(-6 -7.32)"/><path d="M128,20.11a53,53,0,0,1,8.11,5.57A43.3,43.3,0,0,0,148,23.29a28.33,28.33,0,0,1-6.31-6.37,27,27,0,0,0-3.78.25V14.93l-3.39,4.28a42.21,42.21,0,0,0-8.55-6.66l4-4.78a57.26,57.26,0,0,1,7.91,5.67V11.15a30.65,30.65,0,0,0,5.42.3h6.61v-.6a22.91,22.91,0,0,0-.24-3.28h6.91a15.75,15.75,0,0,0-.25,3.23v.65H165a39.28,39.28,0,0,0,5.62-.3v6a33.15,33.15,0,0,0-5.08-.25h-.34a25.65,25.65,0,0,1-5.92,6.27,53.46,53.46,0,0,0,12.43,2.59,16.47,16.47,0,0,0-2.49,5.87c-2-.35-2.68-.5-3.78-.75V48a38.45,38.45,0,0,0,.3,5.92h-6.81a48.64,48.64,0,0,0,.3-6V45h-14A20.78,20.78,0,0,1,139,54.23a15.91,15.91,0,0,0-5.12-4.68c2.93-2.43,4.32-4.17,5.32-6.71s1.54-6.57,1.54-11.89c-1,.2-1.59.3-3.08.55a17.17,17.17,0,0,0-1.49-4.38l-3.09,4.53a44.73,44.73,0,0,0-8.85-6.57Zm8.55,17.21A74.4,74.4,0,0,1,130,53.88l-5.57-4.82a15.83,15.83,0,0,0,2-2.84c2-3.53,3.23-6.71,5-12.68Zm10.1-.85c-.15,1.4-.2,1.89-.35,3.09h12.89V36.47Zm12.54-5.37V29.16a42.47,42.47,0,0,1-5.67-2.34A36.69,36.69,0,0,1,147,29.41c0,1,0,1,0,1.69ZM148.67,16.92a14.71,14.71,0,0,0,4.68,3.78,17.82,17.82,0,0,0,4.32-3.78Z" transform="translate(-6 -7.32)"/><path d="M181.25,10.61a30.08,30.08,0,0,0,5.08.24c3.13,0,7.66-.19,9.75-.44a4.49,4.49,0,0,0,2-.6l4.62,3.93a9.3,9.3,0,0,0-1.14,2.19c-.4,1.14-2.64,8-3.48,10.84a43,43,0,0,1,9.75,2.74,60.68,60.68,0,0,0,.44-8.71,16.24,16.24,0,0,0-.19-2.73l7.41.3a17.34,17.34,0,0,0-.3,3.48,78.89,78.89,0,0,1-.9,10.39c1.15.6,3.78,1.94,5.23,2.79a12.6,12.6,0,0,0,2,1L219,43.88a41.62,41.62,0,0,0-6.52-4.37,23.47,23.47,0,0,1-5.57,8.6,30.72,30.72,0,0,1-7.31,5.42,26.54,26.54,0,0,0-5.27-5.42,24.2,24.2,0,0,0,7.46-5,18,18,0,0,0,4.37-6.87,39.27,39.27,0,0,0-10-3.18c-2.14,6.42-3.54,9.9-5,12.29-1.94,3.18-4.38,4.77-7.21,4.77a8.56,8.56,0,0,1-6-2.63A10.63,10.63,0,0,1,175.18,40a13.1,13.1,0,0,1,6.32-11.29c2.59-1.59,5.37-2.34,9.6-2.53,1-3,1.94-6.32,2.74-9.46-1.3.15-4.33.3-9,.55-.79.05-1.94.1-3.38.25Zm2.14,24.72a6.41,6.41,0,0,0-1.64,4.28c0,1.84.9,3.23,2.09,3.23.8,0,1.54-.85,2.54-3a65.72,65.72,0,0,0,2.88-7.31A8.09,8.09,0,0,0,183.39,35.33Z" transform="translate(-6 -7.32)"/><rect y="59.68" width="234" height="1"/><path d="M51.25,88.22a37.84,37.84,0,0,1-.13,3.85,4.32,4.32,0,0,1-2.62,3.5,6.74,6.74,0,0,1-2.68.5,6.92,6.92,0,0,1-2.6-.47,4.25,4.25,0,0,1-1.85-1.42,4.31,4.31,0,0,1-.84-2.06,38.34,38.34,0,0,1-.13-3.9V85.13a37.84,37.84,0,0,1,.13-3.85,4.32,4.32,0,0,1,2.62-3.5,6.69,6.69,0,0,1,2.67-.5,6.85,6.85,0,0,1,2.6.47,4.34,4.34,0,0,1,1.86,1.42,4.16,4.16,0,0,1,.83,2.06,37.52,37.52,0,0,1,.14,3.9Zm-4.69-5.93a5.72,5.72,0,0,0-.14-1.61.56.56,0,0,0-.57-.35.65.65,0,0,0-.57.29,4,4,0,0,0-.19,1.67v8.42a8,8,0,0,0,.13,1.94.55.55,0,0,0,.59.37.56.56,0,0,0,.61-.43,8.65,8.65,0,0,0,.14-2Z" transform="translate(-6 -7.32)"/><path d="M53,77.66h3.32a25.59,25.59,0,0,1,4.49.25,3.13,3.13,0,0,1,1.92,1.31,6,6,0,0,1,.74,3.36,5.23,5.23,0,0,1-.53,2.83,2.76,2.76,0,0,1-2.06.87,3.56,3.56,0,0,1,1.87.92,2.79,2.79,0,0,1,.6,1.07,16.28,16.28,0,0,1,.12,2.66v4.76H59.11v-6a4,4,0,0,0-.23-1.79c-.15-.24-.55-.35-1.19-.35v8.13H53Zm4.69,3.08v4a2.1,2.1,0,0,0,1.1-.21c.22-.15.32-.62.32-1.41v-1a1.52,1.52,0,0,0-.3-1.12A1.75,1.75,0,0,0,57.69,80.74Z" transform="translate(-6 -7.32)"/><path d="M65.28,77.66h3.51a21.76,21.76,0,0,1,4.6.31,3.62,3.62,0,0,1,1.82,1A3.39,3.39,0,0,1,76,80.58,24.94,24.94,0,0,1,76.14,84v6.31a15,15,0,0,1-.22,3.25,2.48,2.48,0,0,1-.8,1.28,3.4,3.4,0,0,1-1.41.65,12.82,12.82,0,0,1-2.51.18H65.28ZM70,80.74V92.61c.68,0,1.09-.14,1.25-.41A5.9,5.9,0,0,0,71.45,90V83a10.06,10.06,0,0,0-.07-1.57A.77.77,0,0,0,71,80.9,2.47,2.47,0,0,0,70,80.74Z" transform="translate(-6 -7.32)"/><path d="M77.89,77.66h7.82v3.61H82.58v3.42h2.93v3.43H82.58v4H86v3.61H77.89Z" transform="translate(-6 -7.32)"/><path d="M87.37,77.66h3.32a25.8,25.8,0,0,1,4.5.25,3.09,3.09,0,0,1,1.91,1.31,6,6,0,0,1,.74,3.36,5.25,5.25,0,0,1-.52,2.83,2.78,2.78,0,0,1-2.06.87,3.56,3.56,0,0,1,1.87.92,2.79,2.79,0,0,1,.6,1.07,18.24,18.24,0,0,1,.11,2.66v4.76H93.49v-6a4.13,4.13,0,0,0-.23-1.79c-.15-.24-.55-.35-1.2-.35v8.13H87.37Zm4.69,3.08v4a2.12,2.12,0,0,0,1.11-.21c.21-.15.32-.62.32-1.41v-1A1.51,1.51,0,0,0,93.18,81,1.73,1.73,0,0,0,92.06,80.74Z" transform="translate(-6 -7.32)"/><path d="M114.63,85.51h-4.69V82.38a5.64,5.64,0,0,0-.15-1.71.64.64,0,0,0-.66-.34.7.7,0,0,0-.74.41,6.44,6.44,0,0,0-.16,1.79V90.9a6,6,0,0,0,.16,1.72.8.8,0,0,0,1.39,0,6.93,6.93,0,0,0,.16-1.89V88.46h4.69v.71a13.61,13.61,0,0,1-.4,4,4,4,0,0,1-1.75,2,5.94,5.94,0,0,1-3.33.88,6.87,6.87,0,0,1-3.4-.75A3.6,3.6,0,0,1,104,93.26a13.54,13.54,0,0,1-.44-4V84a23.1,23.1,0,0,1,.14-2.93,4.08,4.08,0,0,1,.79-1.87,4.49,4.49,0,0,1,1.84-1.42,7.51,7.51,0,0,1,6.12.28,3.87,3.87,0,0,1,1.78,2,12,12,0,0,1,.42,3.72Z" transform="translate(-6 -7.32)"/><path d="M127,88.22c0,1.81,0,3.09-.13,3.85a4.43,4.43,0,0,1-.8,2.06,4.32,4.32,0,0,1-1.83,1.44,6.66,6.66,0,0,1-2.67.5,6.92,6.92,0,0,1-2.6-.47,4.25,4.25,0,0,1-1.85-1.42,4.31,4.31,0,0,1-.84-2.06,38.34,38.34,0,0,1-.13-3.9V85.13c0-1.81,0-3.09.12-3.85a4.34,4.34,0,0,1,.81-2.06,4.22,4.22,0,0,1,1.82-1.44,6.66,6.66,0,0,1,2.67-.5,6.88,6.88,0,0,1,2.6.47,4.31,4.31,0,0,1,2.69,3.48,37.52,37.52,0,0,1,.14,3.9Zm-4.69-5.93a5.72,5.72,0,0,0-.14-1.61.57.57,0,0,0-.58-.35.65.65,0,0,0-.56.29,4,4,0,0,0-.19,1.67v8.42a8.8,8.8,0,0,0,.12,1.94.56.56,0,0,0,.6.37.57.57,0,0,0,.61-.43,8.65,8.65,0,0,0,.14-2Z" transform="translate(-6 -7.32)"/><path d="M143.24,77.66v18h-4.09V83.52l-1.63,12.17H134.6l-1.72-11.9v11.9h-4.1v-18h6.07c.18,1.08.37,2.36.56,3.83l.67,4.59,1.07-8.42Z" transform="translate(-6 -7.32)"/><path d="M145.13,77.66h4.72a11.15,11.15,0,0,1,3,.3,3.26,3.26,0,0,1,1.54.87,3,3,0,0,1,.71,1.37,12.57,12.57,0,0,1,.18,2.5v1.57a6.51,6.51,0,0,1-.36,2.52A2.43,2.43,0,0,1,153.56,88a6.18,6.18,0,0,1-2.48.42h-1.26v7.26h-4.69Zm4.69,3.08v4.59h.34a1.1,1.1,0,0,0,.9-.31,2.35,2.35,0,0,0,.25-1.32V82.22A1.76,1.76,0,0,0,151,81,1.85,1.85,0,0,0,149.82,80.74Z" transform="translate(-6 -7.32)"/><path d="M161.27,77.66V92.08h2.85v3.61h-7.54v-18Z" transform="translate(-6 -7.32)"/><path d="M165.25,77.66h7.82v3.61h-3.13v3.42h2.93v3.43h-2.93v4h3.45v3.61h-8.14Z" transform="translate(-6 -7.32)"/><path d="M184.18,77.66v3.61H181.4V95.69h-4.69V81.27h-2.78V77.66Z" transform="translate(-6 -7.32)"/><path d="M185.25,77.66h7.82v3.61h-3.13v3.42h2.93v3.43h-2.93v4h3.44v3.61h-8.13Z" transform="translate(-6 -7.32)"/><path d="M194.73,77.66h3.51a21.64,21.64,0,0,1,4.59.31,3.53,3.53,0,0,1,1.82,1,3.22,3.22,0,0,1,.78,1.59,22.92,22.92,0,0,1,.16,3.44v6.31a14.77,14.77,0,0,1-.23,3.25,2.46,2.46,0,0,1-.79,1.28,3.4,3.4,0,0,1-1.41.65,12.94,12.94,0,0,1-2.52.18h-5.91Zm4.69,3.08V92.61c.67,0,1.09-.14,1.25-.41A6.13,6.13,0,0,0,200.9,90V83a8.53,8.53,0,0,0-.08-1.57.76.76,0,0,0-.35-.51A2.47,2.47,0,0,0,199.42,80.74Z" transform="translate(-6 -7.32)"/></svg>