<svg id="レイヤー_1" data-name="レイヤー 1" xmlns="http://www.w3.org/2000/svg" viewBox="0 0 245.69 88.7"><path d="M11.72,38.81a47.37,47.37,0,0,0-5.27.2,50.2,50.2,0,0,0,.25-5.37V15.23a55.67,55.67,0,0,0-.25-6,47.54,47.54,0,0,0,5.17.2h24a48,48,0,0,0,5.22-.2,55.67,55.67,0,0,0-.25,6V33.64A38.5,38.5,0,0,0,40.82,39a50.38,50.38,0,0,0-5.22-.2H31.37v7.41c0,1.3.4,1.44,3.83,1.44s4.38-.19,4.88-.94.64-3.13.74-6.32a22.23,22.23,0,0,0,6.07,2.39c-.55,6.12-1,7.86-2.49,9.15-1.34,1.25-3.53,1.59-9.4,1.59-8.65,0-10-.69-10-4.77V38.81H21.17a15.31,15.31,0,0,1-4.87,9.6C13.21,51.3,9.68,53,3.86,54.48A22.89,22.89,0,0,0,.43,48.61c4.48-.8,7-1.64,9.25-3a9.93,9.93,0,0,0,4.68-6.77Zm1.2-21H34.31V15.08H12.92Zm0,7.81H34.31V22.79H12.92Zm0,7.86H34.31V30.6H12.92Z" transform="translate(-0.43 -7.37)"/><path d="M66.59,26.18A12.23,12.23,0,0,0,64.9,26H62.81a21.58,21.58,0,0,0,5.57,7.16c-.45.94-.45.94-1.34,2.59a17,17,0,0,0-1.2,2.73,27.24,27.24,0,0,1-3.43-5.12c.15,1.34.25,3.43.25,5v9.65A43.86,43.86,0,0,0,62.91,54H56.29a49.47,49.47,0,0,0,.3-5.92V42.19c0-2.19.1-4.18.25-6.12a27.61,27.61,0,0,1-4.33,8.56,25.44,25.44,0,0,0-2.93-6A31.11,31.11,0,0,0,56.15,26H54.21a19,19,0,0,0-3.54.24V20a19.91,19.91,0,0,0,3.73.25h2.19V15.93c-1.34.3-2,.45-4.23.84a26.45,26.45,0,0,0-2.13-5.57c6-.79,11.69-2.34,14.07-3.83l3.34,5.28a5.67,5.67,0,0,0-.75.29c-1.34.5-2.39.85-4.23,1.45v5.87h1.59c1.5-.15,2.29-.25,2.39-.25V21.5a32.87,32.87,0,0,0,4.18.2h7.11V20.16H72.51a38.41,38.41,0,0,0-4,.15V16.18a29.71,29.71,0,0,0,3.93.2h5.47V14.93H72.16a37.44,37.44,0,0,0-4.47.2V10.36a34.48,34.48,0,0,0,4.92.25h5.32a11.7,11.7,0,0,0-.3-3h6.42a11.83,11.83,0,0,0-.25,3H90a46.54,46.54,0,0,0,5-.25v4.77a38.89,38.89,0,0,0-4.52-.2H83.8v1.45h6a30.23,30.23,0,0,0,4.08-.2v4.13a38.87,38.87,0,0,0-4-.15H83.8V21.7h7.81a29.08,29.08,0,0,0,4.63-.25v5a33.5,33.5,0,0,0-4.63-.24H70.82a29.34,29.34,0,0,0-4.23.24Zm5.92,20.34c-1.64,0-2.93,0-4.18.1a37.43,37.43,0,0,0,.2-4.38V31.45a27.27,27.27,0,0,0-.15-4c1.1.1,1.94.1,4.08.1h17a41.52,41.52,0,0,0,4.18-.1,27.63,27.63,0,0,0-.2,4.28V42.19a30.43,30.43,0,0,0,.2,4.43c-1.69,0-2.53-.1-4.13-.1H88.08a34.2,34.2,0,0,0,9.3,2.59,22.18,22.18,0,0,0-3.13,5.27A29.89,29.89,0,0,1,82.56,49l2.59-2.49H76.29L79,49c-3.83,2.83-6.27,4-11.64,5.37a23.31,23.31,0,0,0-2.89-5,25.23,25.23,0,0,0,9.21-2.89ZM74.4,32.94H87.58V31.5H74.4Zm0,4.68H87.58v-1.5H74.4Zm0,4.77H87.58V40.8H74.4Z" transform="translate(-0.43 -7.37)"/><path d="M119.77,14.24H109.62a42,42,0,0,0-4.92.2V9.81a44,44,0,0,0,5.67.3h9.4a14.67,14.67,0,0,0-.3-2.59h6.77a11.52,11.52,0,0,0-.3,2.59h10a39.91,39.91,0,0,0,5.38-.25,25.43,25.43,0,0,0-.2,4.08v1.74h.5a26.21,26.21,0,0,0,4.22-.25v4.73a32.55,32.55,0,0,0-4.42-.2h-.3V21.7a27.92,27.92,0,0,0,.15,3.58c-1.49-.1-2.84-.15-5-.15H125.94v1.39h11.74a46.23,46.23,0,0,0,5.27-.2V30.5a50.33,50.33,0,0,0-5.27-.2H125.94v1.45h14c2.54,0,4.23-.1,5.82-.25v5a53.91,53.91,0,0,0-5.82-.3H106.09a53.52,53.52,0,0,0-5.87.3v-5c1.49.15,3.48.25,5.87.25h13.68V30.3H108.53a49.93,49.93,0,0,0-5.28.2V26.32a48.15,48.15,0,0,0,5.28.2h11.24V25.13H109.62a43,43,0,0,0-5,.2V21.2a42.45,42.45,0,0,0,5,.2h10.15V20H106a49.9,49.9,0,0,0-5.82.25V15.43c1.54.15,3.33.25,5.82.25h13.78Zm-14,28.1a36.59,36.59,0,0,0-.15-4.87c1.24.1,1.89.1,5.08.1h24.72c3.28,0,3.88,0,5.12-.1a35.62,35.62,0,0,0-.2,4.87v6.22a32,32,0,0,0,.3,5.27H134V52.29H112v1.54h-6.47a49.21,49.21,0,0,0,.25-5.22Zm6.22.75H134V41.55H112Zm0,5.12H134V46.62H112ZM135,15.68V14.24h-9.1v1.44Zm-9.1,5.72H135V20h-9.1Z" transform="translate(-0.43 -7.37)"/><path d="M193.74,38.56c-3.53,4-4.43,4.88-7.66,7.26a57.07,57.07,0,0,0,10.69,2,23.25,23.25,0,0,0-2.53,6.27,45.5,45.5,0,0,1-14.08-4.53,44.58,44.58,0,0,1-14.93,4.68,23,23,0,0,0-2.78-5.37,43.63,43.63,0,0,0,12.14-2.84,29.81,29.81,0,0,1-3.39-2.88,40.23,40.23,0,0,1-5.47,3.28A23.69,23.69,0,0,0,162.3,42c5.27-2.38,8.46-4.62,10.94-7.76-2.24.05-3.68.05-4.28.1.1-1.64.15-3,.15-4.57v-7A24.91,24.91,0,0,0,166,20a61.11,61.11,0,0,1-5,8.9,13,13,0,0,0,1.09,1.19,30.18,30.18,0,0,0,3.38-4.87L169.06,28c-1.24,1.74-2.48,3.28-3.88,4.92.95.75,1.35,1,2.59,1.89a24.25,24.25,0,0,0-2.69,5,38.91,38.91,0,0,1-4-3.69V48.31a45.1,45.1,0,0,0,.29,5.77h-6.81a51,51,0,0,0,.3-5.87V36.82a44.36,44.36,0,0,1-4,3.83,23.42,23.42,0,0,0-2.34-6.47A34,34,0,0,0,159,21.1h-4.83a30.67,30.67,0,0,0-4.13.2V15.08a24,24,0,0,0,4.48.25h.4V11.6a29.62,29.62,0,0,0-.25-4h6.91a25.08,25.08,0,0,0-.25,3.88v3.83a17.1,17.1,0,0,0,2.94-.2l1.89,1.79c2.49-2.53,5-6.81,5.52-9.5l6.57,1.3c-.25.49-.35.64-.65,1.29-.2.45-.3.65-.55,1.14H190.8a32.89,32.89,0,0,0,5-.25v5.87a29.49,29.49,0,0,0-5-.25H174c-.55.85-.6.95-1.24,1.9h15.66c2.09,0,3.74-.05,5-.15a38.69,38.69,0,0,0-.2,5v6a40.12,40.12,0,0,0,.2,5.07c-1.29-.1-2.24-.15-4.63-.15h-9.15c-.6.85-.75,1.1-1.24,1.7H187a21,21,0,0,0,3.68-.2ZM175.08,24.38h12.24V22.69H175.08Zm0,5.63h12.24v-1.8H175.08Zm1,10.49a17.94,17.94,0,0,0,4,2.89,32.88,32.88,0,0,0,4.18-2.89Z" transform="translate(-0.43 -7.37)"/><path d="M228,51.05c-5.77,1.09-12.78,2.24-17.86,2.88-1.29.2-1.49.2-2.58.4l-.9-5.82h.55c1.39,0,3.38-.15,6.17-.45V44.93A70.12,70.12,0,0,1,202,49.85a23.18,23.18,0,0,0-3-5.32,36.12,36.12,0,0,0,7.46-2,28.93,28.93,0,0,0,6.47-3.13h-7.76a37.67,37.67,0,0,0-5.42.2V34a52.41,52.41,0,0,0,5.67.19H220.7v-.84c0-.3,0-.55,0-1.3h-2.19a12.16,12.16,0,0,0-.84-3.28,10.18,10.18,0,0,0,2,.25c.55,0,.75-.2.75-.8V26.87h-3.88v1.89c0,1.74,0,2.74.15,4h-6c.1-1.44.15-2.09.15-4V26.87h-3.43v2.64a11.3,11.3,0,0,0,.15,2.68H201.7a5.92,5.92,0,0,1,.1-1.09c0-.3,0-1.34,0-1.89V25.48c0-.35,0-1.29-.1-2.69.69.05,2.09.1,3.08.1h6V21.2h-6.27a32,32,0,0,0-4.67.25V16.57a25.21,25.21,0,0,0,3.38.2,25.88,25.88,0,0,0-3.93-2.28,18.61,18.61,0,0,0,4-7.07L209,8.47c-.4,1-.55,1.39-.85,2.09h2.69a19,19,0,0,0-.2-3h6.12a17.1,17.1,0,0,0-.2,3h4.33a37.17,37.17,0,0,0,4.77-.2v4.77C224.13,15,223,15,220.9,15h-4.38v1.79h5a37.75,37.75,0,0,0,5.18-.2V21.4a44.07,44.07,0,0,0-4.88-.2h-5.32v1.69h5c1.64,0,2.58-.05,3.92-.1,0,.55,0,1.1,0,2v3.73a3.82,3.82,0,0,1-.55,2.24h2.24a14.44,14.44,0,0,0-.15,2.59v.84H239.2A52.79,52.79,0,0,0,245,34v5.62a38.77,38.77,0,0,0-5.47-.2h-2.68l5,2.63a36.86,36.86,0,0,1-5,3.54,37.28,37.28,0,0,0,9.3,2.63,22.19,22.19,0,0,0-3.14,6c-6.86-1.94-10.79-3.93-15-7.46ZM210.8,16.77V15h-4.87a20.74,20.74,0,0,1-1.2,1.79Zm8.75,30.4c4.23-.6,5.87-.9,7.57-1.25a19,19,0,0,1-4.68-6.51h-.5c-.89.79-1.19,1-2.39,2Zm8-21.84a31.55,31.55,0,0,0,.15-3.38V14c0-1.3-.1-2.79-.2-3.83h6.32a23,23,0,0,0-.2,3.83v7.81a28.22,28.22,0,0,0,.15,3.48Zm1.1,14.08a11.4,11.4,0,0,0,3.23,3.38A22.73,22.73,0,0,0,236,39.41Zm14.57-12.94c0,2.74-.49,3.93-1.94,4.88-1.14.69-2.83,1-6.26,1-.75,0-2.24-.05-3.64-.1a18.45,18.45,0,0,0-1.59-5.32c1.94.2,3.78.3,4.88.3,2.09,0,2.43-.2,2.43-1.39V12.1a27.39,27.39,0,0,0-.24-4.18h6.61a27.34,27.34,0,0,0-.25,4.53Z" transform="translate(-0.43 -7.37)"/><rect x="5.57" y="59.63" width="234" height="1"/><path d="M66.06,85.51H61.37V82.38a5.64,5.64,0,0,0-.15-1.71c-.1-.23-.32-.34-.67-.34a.69.69,0,0,0-.73.41,6.06,6.06,0,0,0-.16,1.79V90.9a5.62,5.62,0,0,0,.16,1.72.8.8,0,0,0,1.39,0,6.93,6.93,0,0,0,.16-1.89V88.46h4.69v.71a14,14,0,0,1-.4,4,4.06,4.06,0,0,1-1.75,2,5.94,5.94,0,0,1-3.33.88,6.87,6.87,0,0,1-3.4-.75,3.6,3.6,0,0,1-1.77-2.06,13.54,13.54,0,0,1-.44-4V84a23.1,23.1,0,0,1,.14-2.93,4.08,4.08,0,0,1,.79-1.87,4.49,4.49,0,0,1,1.84-1.42,7.51,7.51,0,0,1,6.12.28,3.81,3.81,0,0,1,1.77,2,11.67,11.67,0,0,1,.43,3.72Z" transform="translate(-0.43 -7.37)"/><path d="M78.46,88.22c0,1.81,0,3.09-.13,3.85a4.34,4.34,0,0,1-.81,2.06,4.23,4.23,0,0,1-1.82,1.44,6.66,6.66,0,0,1-2.67.5,6.88,6.88,0,0,1-2.6-.47,4.34,4.34,0,0,1-1.86-1.42,4.39,4.39,0,0,1-.83-2.06,38.34,38.34,0,0,1-.13-3.9V85.13c0-1.81,0-3.09.12-3.85a4.34,4.34,0,0,1,.81-2.06,4.16,4.16,0,0,1,1.82-1.44,6.66,6.66,0,0,1,2.67-.5,6.88,6.88,0,0,1,2.6.47,4.31,4.31,0,0,1,2.69,3.48,37.52,37.52,0,0,1,.14,3.9Zm-4.69-5.93a5.72,5.72,0,0,0-.14-1.61.57.57,0,0,0-.58-.35.65.65,0,0,0-.56.29,3.91,3.91,0,0,0-.2,1.67v8.42a8.53,8.53,0,0,0,.13,1.94A.56.56,0,0,0,73,93a.57.57,0,0,0,.61-.43,8.65,8.65,0,0,0,.14-2Z" transform="translate(-0.43 -7.37)"/><path d="M80.2,77.66h4.73a11.06,11.06,0,0,1,2.94.3,3.24,3.24,0,0,1,1.55.87,2.89,2.89,0,0,1,.7,1.37,11.69,11.69,0,0,1,.19,2.5v1.57A6.51,6.51,0,0,1,90,86.79,2.46,2.46,0,0,1,88.64,88a6.2,6.2,0,0,1-2.49.42H84.89v7.26H80.2Zm4.69,3.08v4.59h.35a1.06,1.06,0,0,0,.89-.31,2.33,2.33,0,0,0,.26-1.32V82.22A1.76,1.76,0,0,0,86.1,81,1.88,1.88,0,0,0,84.89,80.74Z" transform="translate(-0.43 -7.37)"/><path d="M101.65,77.66l-3.42,11.5v6.53H93.88V89.16l-3.3-11.5h4.31A71.57,71.57,0,0,1,96,84.76q.39-2.88,1.31-7.1Z" transform="translate(-0.43 -7.37)"/><path d="M106.47,77.66h7.82v3.61h-3.13v3.42h2.93v3.43h-2.93v4h3.44v3.61h-8.13Z" transform="translate(-0.43 -7.37)"/><path d="M125.88,83.12h-4.35V81.78a2.63,2.63,0,0,0-.17-1.19.62.62,0,0,0-.56-.26.72.72,0,0,0-.64.35,2,2,0,0,0-.21,1,3,3,0,0,0,.24,1.36,3.54,3.54,0,0,0,1.33,1.11,13.34,13.34,0,0,1,3.94,3,7,7,0,0,1,.81,3.84,6.77,6.77,0,0,1-.45,2.84,3.51,3.51,0,0,1-1.74,1.53,6.91,6.91,0,0,1-3,.62,6.79,6.79,0,0,1-3.21-.71,3.47,3.47,0,0,1-1.74-1.82,9.13,9.13,0,0,1-.42-3.13V89.23h4.36v2.19a3,3,0,0,0,.18,1.31.71.71,0,0,0,.65.29.75.75,0,0,0,.7-.37,2.11,2.11,0,0,0,.23-1.09,3.35,3.35,0,0,0-.44-2.08,12.71,12.71,0,0,0-2.19-1.64,21,21,0,0,1-2.32-1.68,3.92,3.92,0,0,1-.94-1.45,6.39,6.39,0,0,1-.37-2.36,6.46,6.46,0,0,1,.53-3,3.53,3.53,0,0,1,1.71-1.5,6.8,6.8,0,0,1,2.85-.54,7.47,7.47,0,0,1,3.11.59,3.25,3.25,0,0,1,1.71,1.49,7.82,7.82,0,0,1,.41,3Z" transform="translate(-0.43 -7.37)"/><path d="M137.19,77.66v3.61h-2.78V95.69h-4.69V81.27h-2.78V77.66Z" transform="translate(-0.43 -7.37)"/><path d="M143,77.66v18h-4.69v-18Z" transform="translate(-0.43 -7.37)"/><path d="M159.3,77.66v18h-4.1V83.52l-1.64,12.17h-2.9l-1.72-11.9v11.9h-4.1v-18h6.07c.18,1.08.36,2.36.56,3.83l.66,4.59,1.08-8.42Z" transform="translate(-0.43 -7.37)"/><path d="M169.29,77.66l2.68,18h-4.79l-.25-3.24h-1.68L165,95.69h-4.85l2.39-18ZM166.8,89.25q-.35-3.06-.71-7.57c-.48,3.45-.78,6-.9,7.57Z" transform="translate(-0.43 -7.37)"/><path d="M182.21,77.66v3.61h-2.78V95.69h-4.69V81.27H172V77.66Z" transform="translate(-0.43 -7.37)"/><path d="M183.28,77.66h7.82v3.61H188v3.42h2.93v3.43H188v4h3.45v3.61h-8.14Z" transform="translate(-0.43 -7.37)"/></svg>